<svg width="154" height="150" viewBox="0 0 154 150" fill="none" xmlns="http://www.w3.org/2000/svg">
<path fill-rule="evenodd" clip-rule="evenodd" d="M49.893 39.0344C75.7461 13.3721 107.037 6.7896 119.534 24.2476C132.031 41.8009 121.061 77.0031 95.2074 102.57C69.3544 128.232 38.0636 134.815 25.5663 117.357C13.1645 99.8988 24.04 64.6967 49.893 39.0344Z" fill="#F99D28"/>
<path fill-rule="evenodd" clip-rule="evenodd" d="M67.0642 25.3926C64.2977 27.4914 61.3403 29.9718 58.4783 32.7383C35.7734 55.0616 26.4243 85.78 37.586 101.139C49.1293 116.498 76.9857 110.87 99.9768 88.2604C112.379 76.2402 120.774 62.1211 124.208 49.0515C125.257 39.4162 123.826 30.9257 119.534 24.4386C109.612 10.7966 88.3382 11.846 67.0642 25.3926Z" fill="#AF2A30"/>
<path fill-rule="evenodd" clip-rule="evenodd" d="M79.8474 115.354C67.7317 124.417 55.2345 128.996 43.0234 127.088C48.175 127.374 52.2771 121.65 55.7115 114.018C59.1458 106.195 61.2446 98.9451 62.8664 92.1717C65.2514 81.3917 65.4422 73.7598 64.202 72.138C62.1032 69.3714 57.4287 70.1346 52.0863 73.1874C49.5106 74.6184 46.1716 73.6644 50.1783 68.799C54.2805 63.9337 70.3075 52.1043 76.1268 50.2917C82.5185 48.4791 89.7688 50.9595 87.2885 57.9236C85.5713 62.8843 63.248 121.459 79.8474 115.354ZM98.0685 24.6294C101.121 27.6822 99.2133 34.2647 94.1572 39.4162C89.0056 44.5678 82.2323 46.3803 79.275 43.423C76.1268 40.4656 78.0348 33.7877 83.1863 28.5408C88.4333 23.2938 95.2066 21.6721 98.0685 24.6294Z" fill="white"/>
</svg>
