<svg width="20" height="20" viewBox="0 0 20 20" fill="none" xmlns="http://www.w3.org/2000/svg">
<path d="M7.49992 10.8333H12.4999M7.49992 14.1666H9.99992M3.33325 3.33329V16.6666C3.33325 17.1087 3.50885 17.5326 3.82141 17.8451C4.13397 18.1577 4.55789 18.3333 4.99992 18.3333H14.9999C15.4419 18.3333 15.8659 18.1577 16.1784 17.8451C16.491 17.5326 16.6666 17.1087 16.6666 16.6666V6.95163C16.6666 6.72959 16.6222 6.5098 16.536 6.30516C16.4499 6.10052 16.3237 5.91516 16.1649 5.75996L12.4649 2.14163C12.1536 1.83717 11.7354 1.66668 11.2999 1.66663H4.99992C4.55789 1.66663 4.13397 1.84222 3.82141 2.15478C3.50885 2.46734 3.33325 2.89127 3.33325 3.33329Z" stroke="#36556B" stroke-linecap="round" stroke-linejoin="round"/>
<path d="M11.6665 1.66663V4.99996C11.6665 5.44199 11.8421 5.86591 12.1547 6.17847C12.4672 6.49103 12.8911 6.66663 13.3332 6.66663H16.6665" stroke="#36556B" stroke-linejoin="round"/>
</svg>
