<svg width="20" height="14" viewBox="0 0 20 14" fill="none" xmlns="http://www.w3.org/2000/svg">
<path d="M9.16013 9.33745C9.99779 8.77979 10.6338 7.96736 10.974 7.0203C11.3142 6.07325 11.3406 5.04185 11.0493 4.07862C10.758 3.1154 10.1644 2.27149 9.35641 1.67169C8.54838 1.07189 7.56879 0.748047 6.56248 0.748047C5.55617 0.748047 4.57657 1.07189 3.76855 1.67169C2.96053 2.27149 2.36698 3.1154 2.07567 4.07862C1.78437 5.04185 1.81078 6.07325 2.15099 7.0203C2.49121 7.96736 3.12716 8.77979 3.96482 9.33745C2.44958 9.89592 1.15553 10.9293 0.275759 12.2835C0.229521 12.3523 0.197405 12.4295 0.181276 12.5107C0.165147 12.592 0.165327 12.6756 0.181807 12.7568C0.198286 12.838 0.230736 12.915 0.27727 12.9836C0.323804 13.0521 0.383494 13.1107 0.45287 13.1559C0.522246 13.2012 0.599925 13.2322 0.68139 13.2472C0.762856 13.2621 0.846484 13.2607 0.927412 13.2431C1.00834 13.2255 1.08496 13.1919 1.1528 13.1444C1.22065 13.0969 1.27838 13.0364 1.32263 12.9664C1.89013 12.0935 2.66666 11.3763 3.58173 10.8798C4.49679 10.3833 5.52139 10.1232 6.56248 10.1232C7.60357 10.1232 8.62817 10.3833 9.54323 10.8798C10.4583 11.3763 11.2348 12.0935 11.8023 12.9664C11.894 13.1026 12.0356 13.1973 12.1965 13.23C12.3575 13.2626 12.5248 13.2307 12.6623 13.1409C12.7999 13.0512 12.8966 12.911 12.9315 12.7506C12.9665 12.5901 12.9369 12.4224 12.8492 12.2835C11.9694 10.9293 10.6754 9.89592 9.16013 9.33745ZM3.12498 5.43745C3.12498 4.75758 3.32658 4.09297 3.7043 3.52768C4.08202 2.96238 4.61888 2.52179 5.247 2.26161C5.87512 2.00144 6.56629 1.93336 7.2331 2.066C7.89991 2.19864 8.51241 2.52603 8.99316 3.00677C9.4739 3.48751 9.80129 4.10002 9.93393 4.76683C10.0666 5.43364 9.99849 6.1248 9.73831 6.75292C9.47814 7.38104 9.03754 7.91791 8.47225 8.29563C7.90696 8.67334 7.24235 8.87495 6.56248 8.87495C5.65111 8.87391 4.77737 8.51142 4.13294 7.86699C3.48851 7.22255 3.12601 6.34881 3.12498 5.43745ZM19.5422 13.1484C19.4033 13.2389 19.2342 13.2706 19.0721 13.2365C18.9099 13.2023 18.7679 13.1052 18.6773 12.9664C18.1105 12.093 17.3341 11.3755 16.4188 10.8791C15.5036 10.3828 14.4786 10.1236 13.4375 10.1249C13.2717 10.1249 13.1127 10.0591 12.9955 9.94189C12.8783 9.82468 12.8125 9.66571 12.8125 9.49995C12.8125 9.33419 12.8783 9.17522 12.9955 9.05801C13.1127 8.9408 13.2717 8.87495 13.4375 8.87495C13.9437 8.87447 14.4436 8.76219 14.9014 8.54613C15.3592 8.33007 15.7636 8.01557 16.0858 7.62508C16.4079 7.2346 16.6399 6.77779 16.765 6.28727C16.8902 5.79676 16.9055 5.28466 16.8097 4.78756C16.714 4.29047 16.5097 3.82064 16.2114 3.41166C15.9131 3.00268 15.5281 2.66464 15.084 2.42169C14.6399 2.17874 14.1476 2.03688 13.6423 2.00625C13.137 1.97562 12.6311 2.05696 12.1609 2.24448C12.0842 2.27762 12.0017 2.29506 11.9182 2.29577C11.8347 2.29647 11.7519 2.28043 11.6746 2.24859C11.5974 2.21675 11.5274 2.16975 11.4686 2.11038C11.4099 2.05101 11.3636 1.98046 11.3326 1.90291C11.3016 1.82536 11.2864 1.74238 11.288 1.65887C11.2896 1.57536 11.3079 1.49302 11.3419 1.41671C11.3758 1.3404 11.4248 1.27167 11.4857 1.21458C11.5467 1.15749 11.6185 1.1132 11.6969 1.08432C12.773 0.655145 13.9699 0.639701 15.0568 1.04097C16.1437 1.44224 17.0434 2.23179 17.5825 3.25731C18.1215 4.28282 18.2617 5.47164 17.976 6.59442C17.6903 7.71719 16.9988 8.69438 16.0351 9.33745C17.5504 9.89592 18.8444 10.9293 19.7242 12.2835C19.8147 12.4224 19.8464 12.5915 19.8123 12.7537C19.7781 12.9158 19.681 13.0578 19.5422 13.1484Z" fill="white"/>
</svg>
