<svg width="17" height="21" viewBox="0 0 17 21" fill="none" xmlns="http://www.w3.org/2000/svg">
<path d="M12.75 4.08H17V6.12H15.3V19.38C15.3 19.6505 15.2104 19.91 15.051 20.1012C14.8916 20.2925 14.6754 20.4 14.45 20.4H2.55C2.32457 20.4 2.10837 20.2925 1.94896 20.1012C1.78955 19.91 1.7 19.6505 1.7 19.38V6.12H0V4.08H4.25V1.02C4.25 0.749479 4.33955 0.490038 4.49896 0.298751C4.65837 0.107464 4.87457 0 5.1 0H11.9C12.1254 0 12.3416 0.107464 12.501 0.298751C12.6604 0.490038 12.75 0.749479 12.75 1.02V4.08ZM13.6 6.12H3.4V18.36H13.6V6.12ZM5.95 9.18H7.65V15.3H5.95V9.18ZM9.35 9.18H11.05V15.3H9.35V9.18ZM5.95 2.04V4.08H11.05V2.04H5.95Z" fill="#787878"/>
</svg>
