<svg width="236" height="44" viewBox="0 0 236 44" fill="none" xmlns="http://www.w3.org/2000/svg">
<g filter="url(#filter0_i_1030_1815)">
<path d="M0 0H236V0C230.085 2.68997 225.856 8.09994 224.674 14.49L220.795 35.4702C219.881 40.4131 215.57 44 210.543 44H27.0301C21.1279 44 16.102 39.7079 15.178 33.8785L12.263 15.4863C11.1615 8.53631 6.51241 2.66527 0 0V0Z" fill="url(#paint0_linear_1030_1815)"/>
<path d="M100.543 29V14.6836H105.475C106.588 14.6836 107.438 14.752 108.023 14.8887C108.844 15.0775 109.544 15.4193 110.123 15.9141C110.878 16.5521 111.441 17.3691 111.812 18.3652C112.19 19.3548 112.379 20.4876 112.379 21.7637C112.379 22.8509 112.252 23.8145 111.998 24.6543C111.744 25.4941 111.419 26.1908 111.021 26.7441C110.624 27.291 110.188 27.724 109.713 28.043C109.244 28.3555 108.674 28.5931 108.004 28.7559C107.34 28.9186 106.575 29 105.709 29H100.543ZM102.438 27.3105H105.494C106.438 27.3105 107.177 27.2227 107.711 27.0469C108.251 26.8711 108.681 26.6237 109 26.3047C109.449 25.8555 109.798 25.2533 110.045 24.498C110.299 23.7363 110.426 22.8151 110.426 21.7344C110.426 20.237 110.178 19.0879 109.684 18.2871C109.195 17.4798 108.6 16.9395 107.896 16.666C107.389 16.4707 106.572 16.373 105.445 16.373H102.438V27.3105ZM114.117 23.8145C114.117 21.8939 114.651 20.4714 115.719 19.5469C116.611 18.7786 117.698 18.3945 118.98 18.3945C120.406 18.3945 121.572 18.8633 122.477 19.8008C123.382 20.7318 123.834 22.0208 123.834 23.668C123.834 25.0026 123.632 26.054 123.229 26.8223C122.831 27.584 122.249 28.1764 121.48 28.5996C120.719 29.0228 119.885 29.2344 118.98 29.2344C117.529 29.2344 116.354 28.7689 115.455 27.8379C114.563 26.9069 114.117 25.5658 114.117 23.8145ZM115.924 23.8145C115.924 25.1426 116.214 26.1387 116.793 26.8027C117.372 27.4603 118.102 27.7891 118.98 27.7891C119.853 27.7891 120.579 27.457 121.158 26.793C121.738 26.1289 122.027 25.1165 122.027 23.7559C122.027 22.4733 121.734 21.5033 121.148 20.8457C120.569 20.1816 119.846 19.8496 118.98 19.8496C118.102 19.8496 117.372 20.1784 116.793 20.8359C116.214 21.4935 115.924 22.4863 115.924 23.8145ZM127.818 29L124.645 18.6289H126.461L128.111 24.6152L128.727 26.8418C128.753 26.7311 128.932 26.0182 129.264 24.7031L130.914 18.6289H132.721L134.273 24.6445L134.791 26.627L135.387 24.625L137.164 18.6289H138.873L135.631 29H133.805L132.154 22.7891L131.754 21.0215L129.654 29H127.818ZM140.357 29V18.6289H141.939V20.1035C142.701 18.9642 143.801 18.3945 145.24 18.3945C145.865 18.3945 146.438 18.5085 146.959 18.7363C147.486 18.9577 147.88 19.2507 148.141 19.6152C148.401 19.9798 148.583 20.4128 148.688 20.9141C148.753 21.2396 148.785 21.8092 148.785 22.623V29H147.027V22.6914C147.027 21.9753 146.959 21.4414 146.822 21.0898C146.686 20.7318 146.441 20.4486 146.09 20.2402C145.745 20.0254 145.338 19.918 144.869 19.918C144.12 19.918 143.473 20.1556 142.926 20.6309C142.385 21.1061 142.115 22.0078 142.115 23.3359V29H140.357ZM151.451 29V14.6836H153.209V29H151.451ZM155.289 23.8145C155.289 21.8939 155.823 20.4714 156.891 19.5469C157.783 18.7786 158.87 18.3945 160.152 18.3945C161.578 18.3945 162.743 18.8633 163.648 19.8008C164.553 20.7318 165.006 22.0208 165.006 23.668C165.006 25.0026 164.804 26.054 164.4 26.8223C164.003 27.584 163.421 28.1764 162.652 28.5996C161.891 29.0228 161.057 29.2344 160.152 29.2344C158.701 29.2344 157.525 28.7689 156.627 27.8379C155.735 26.9069 155.289 25.5658 155.289 23.8145ZM157.096 23.8145C157.096 25.1426 157.385 26.1387 157.965 26.8027C158.544 27.4603 159.273 27.7891 160.152 27.7891C161.025 27.7891 161.751 27.457 162.33 26.793C162.91 26.1289 163.199 25.1165 163.199 23.7559C163.199 22.4733 162.906 21.5033 162.32 20.8457C161.741 20.1816 161.018 19.8496 160.152 19.8496C159.273 19.8496 158.544 20.1784 157.965 20.8359C157.385 21.4935 157.096 22.4863 157.096 23.8145ZM173.844 27.7207C173.193 28.2741 172.564 28.6647 171.959 28.8926C171.36 29.1204 170.715 29.2344 170.025 29.2344C168.886 29.2344 168.01 28.9577 167.398 28.4043C166.786 27.8444 166.48 27.1315 166.48 26.2656C166.48 25.7578 166.594 25.2956 166.822 24.8789C167.057 24.4557 167.359 24.1172 167.73 23.8633C168.108 23.6094 168.531 23.4173 169 23.2871C169.345 23.196 169.866 23.1081 170.562 23.0234C171.982 22.8542 173.027 22.6523 173.697 22.418C173.704 22.1771 173.707 22.0241 173.707 21.959C173.707 21.2428 173.541 20.7383 173.209 20.4453C172.76 20.0482 172.092 19.8496 171.207 19.8496C170.38 19.8496 169.768 19.9961 169.371 20.2891C168.98 20.5755 168.691 21.0866 168.502 21.8223L166.783 21.5879C166.939 20.8522 167.197 20.2598 167.555 19.8105C167.913 19.3548 168.43 19.0065 169.107 18.7656C169.785 18.5182 170.569 18.3945 171.461 18.3945C172.346 18.3945 173.066 18.4987 173.619 18.707C174.173 18.9154 174.579 19.179 174.84 19.498C175.1 19.8105 175.283 20.2077 175.387 20.6895C175.445 20.9889 175.475 21.5293 175.475 22.3105V24.6543C175.475 26.2884 175.51 27.3236 175.582 27.7598C175.66 28.1895 175.81 28.6029 176.031 29H174.195C174.013 28.6354 173.896 28.209 173.844 27.7207ZM173.697 23.7949C173.059 24.0553 172.102 24.2767 170.826 24.459C170.104 24.5632 169.592 24.6803 169.293 24.8105C168.993 24.9408 168.762 25.1328 168.6 25.3867C168.437 25.6341 168.355 25.9108 168.355 26.2168C168.355 26.6855 168.531 27.0762 168.883 27.3887C169.241 27.7012 169.762 27.8574 170.445 27.8574C171.122 27.8574 171.725 27.7109 172.252 27.418C172.779 27.1185 173.167 26.7116 173.414 26.1973C173.603 25.8001 173.697 25.2142 173.697 24.4395V23.7949ZM184.938 29V27.6914C184.28 28.7201 183.313 29.2344 182.037 29.2344C181.21 29.2344 180.449 29.0065 179.752 28.5508C179.062 28.0951 178.525 27.4603 178.141 26.6465C177.763 25.8262 177.574 24.8854 177.574 23.8242C177.574 22.7891 177.747 21.8516 178.092 21.0117C178.437 20.1654 178.954 19.5176 179.645 19.0684C180.335 18.6191 181.106 18.3945 181.959 18.3945C182.584 18.3945 183.141 18.528 183.629 18.7949C184.117 19.0553 184.514 19.3971 184.82 19.8203V14.6836H186.568V29H184.938ZM179.381 23.8242C179.381 25.1523 179.661 26.1452 180.221 26.8027C180.781 27.4603 181.441 27.7891 182.203 27.7891C182.971 27.7891 183.622 27.4766 184.156 26.8516C184.697 26.2201 184.967 25.2598 184.967 23.9707C184.967 22.5514 184.693 21.5098 184.146 20.8457C183.6 20.1816 182.926 19.8496 182.125 19.8496C181.344 19.8496 180.689 20.1686 180.162 20.8066C179.641 21.4447 179.381 22.4505 179.381 23.8242Z" fill="white"/>
<g clip-path="url(#clip0_1030_1815)">
<path d="M73.5625 23.1375C73.7117 23.1375 73.8548 23.1967 73.9602 23.3022C74.0657 23.4077 74.125 23.5508 74.125 23.7V26.5125C74.125 26.8108 74.2435 27.097 74.4545 27.3079C74.6655 27.5189 74.9516 27.6375 75.25 27.6375H88.75C89.0484 27.6375 89.3345 27.5189 89.5455 27.3079C89.7565 27.097 89.875 26.8108 89.875 26.5125V23.7C89.875 23.5508 89.9343 23.4077 90.0398 23.3022C90.1452 23.1967 90.2883 23.1375 90.4375 23.1375C90.5867 23.1375 90.7298 23.1967 90.8352 23.3022C90.9407 23.4077 91 23.5508 91 23.7V26.5125C91 27.1092 90.7629 27.6815 90.341 28.1034C89.919 28.5254 89.3467 28.7625 88.75 28.7625H75.25C74.6533 28.7625 74.081 28.5254 73.659 28.1034C73.2371 27.6815 73 27.1092 73 26.5125V23.7C73 23.5508 73.0593 23.4077 73.1648 23.3022C73.2702 23.1967 73.4133 23.1375 73.5625 23.1375Z" fill="white" stroke="white" stroke-width="0.5"/>
<path d="M82.3985 25.3347C82.3463 25.3871 82.2842 25.4287 82.2159 25.457C82.1475 25.4854 82.0743 25.5 82.0003 25.5C81.9263 25.5 81.853 25.4854 81.7847 25.457C81.7163 25.4287 81.6543 25.3871 81.602 25.3347L78.227 21.9597C78.1214 21.8541 78.0621 21.7109 78.0621 21.5615C78.0621 21.4121 78.1214 21.2689 78.227 21.1632C78.3326 21.0576 78.4759 20.9983 78.6253 20.9983C78.7746 20.9983 78.9179 21.0576 79.0235 21.1632L81.4378 23.5786L81.4378 13.6865C81.4378 13.5373 81.497 13.3942 81.6025 13.2887C81.708 13.1833 81.8511 13.124 82.0003 13.124C82.1494 13.124 82.2925 13.1833 82.398 13.2887C82.5035 13.3942 82.5628 13.5373 82.5628 13.6865L82.5628 23.5786L84.977 21.1632C85.0293 21.1109 85.0914 21.0695 85.1597 21.0412C85.2281 21.0129 85.3013 20.9983 85.3753 20.9983C85.4492 20.9983 85.5225 21.0129 85.5908 21.0412C85.6591 21.0695 85.7212 21.1109 85.7735 21.1632C85.8258 21.2155 85.8673 21.2776 85.8956 21.346C85.9239 21.4143 85.9385 21.4875 85.9385 21.5615C85.9385 21.6355 85.9239 21.7087 85.8956 21.777C85.8673 21.8454 85.8258 21.9074 85.7735 21.9597L82.3985 25.3347Z" fill="white" stroke="white" stroke-width="0.5"/>
</g>
</g>
<defs>
<filter id="filter0_i_1030_1815" x="-4" y="0" width="240" height="47" filterUnits="userSpaceOnUse" color-interpolation-filters="sRGB">
<feFlood flood-opacity="0" result="BackgroundImageFix"/>
<feBlend mode="normal" in="SourceGraphic" in2="BackgroundImageFix" result="shape"/>
<feColorMatrix in="SourceAlpha" type="matrix" values="0 0 0 0 0 0 0 0 0 0 0 0 0 0 0 0 0 0 127 0" result="hardAlpha"/>
<feOffset dx="-4" dy="3"/>
<feGaussianBlur stdDeviation="5"/>
<feComposite in2="hardAlpha" operator="arithmetic" k2="-1" k3="1"/>
<feColorMatrix type="matrix" values="0 0 0 0 0.588385 0 0 0 0 0.588385 0 0 0 0 0.588385 0 0 0 0.08 0"/>
<feBlend mode="normal" in2="shape" result="effect1_innerShadow_1030_1815"/>
</filter>
<linearGradient id="paint0_linear_1030_1815" x1="118" y1="0" x2="118" y2="53.2093" gradientUnits="userSpaceOnUse">
<stop stop-color="#F8A716"/>
<stop offset="1" stop-color="#E75126"/>
</linearGradient>
<clipPath id="clip0_1030_1815">
<rect width="18" height="18" fill="white" transform="translate(73 12)"/>
</clipPath>
</defs>
</svg>
