<svg width="16" height="18" viewBox="0 0 16 18" fill="none" xmlns="http://www.w3.org/2000/svg">
<path d="M5.49992 9.83329H10.4999M5.49992 13.1666H7.99992M1.33325 2.33329V15.6666C1.33325 16.1087 1.50885 16.5326 1.82141 16.8451C2.13397 17.1577 2.55789 17.3333 2.99992 17.3333H12.9999C13.4419 17.3333 13.8659 17.1577 14.1784 16.8451C14.491 16.5326 14.6666 16.1087 14.6666 15.6666V5.95163C14.6666 5.72959 14.6222 5.5098 14.536 5.30516C14.4499 5.10052 14.3237 4.91516 14.1649 4.75996L10.4649 1.14163C10.1536 0.837174 9.73539 0.66668 9.29992 0.666626H2.99992C2.55789 0.666626 2.13397 0.842221 1.82141 1.15478C1.50885 1.46734 1.33325 1.89127 1.33325 2.33329Z" stroke="white" stroke-linecap="round" stroke-linejoin="round"/>
<path d="M9.6665 0.666626V3.99996C9.6665 4.44199 9.8421 4.86591 10.1547 5.17847C10.4672 5.49103 10.8911 5.66663 11.3332 5.66663H14.6665" stroke="white" stroke-linejoin="round"/>
</svg>
