<svg width="263" height="44" viewBox="0 0 263 44" fill="none" xmlns="http://www.w3.org/2000/svg">
<g filter="url(#filter0_i_962_1826)">
<path d="M0 0H263V0C256.425 2.68284 251.62 8.46603 250.187 15.421L245.996 35.7597C245.007 40.5575 240.783 44 235.884 44H28.7685C22.9462 44 17.964 39.8207 16.9514 34.0872L13.8547 16.5551C12.5139 8.96337 7.23666 2.65763 0 0V0Z" fill="url(#paint0_linear_962_1826)"/>
<path d="M88.6406 28V13.6836H98.2988V15.373H90.5352V19.8066H97.2539V21.4961H90.5352V28H88.6406ZM100.555 15.7051V13.6836H102.312V15.7051H100.555ZM100.555 28V17.6289H102.312V28H100.555ZM104.959 28V13.6836H106.717V28H104.959ZM116.551 24.6602L118.367 24.8848C118.081 25.946 117.55 26.7695 116.775 27.3555C116.001 27.9414 115.011 28.2344 113.807 28.2344C112.29 28.2344 111.085 27.7689 110.193 26.8379C109.308 25.9004 108.865 24.5885 108.865 22.9023C108.865 21.1576 109.314 19.8034 110.213 18.8398C111.111 17.8763 112.277 17.3945 113.709 17.3945C115.096 17.3945 116.229 17.8665 117.107 18.8105C117.986 19.7546 118.426 21.0827 118.426 22.7949C118.426 22.8991 118.423 23.0553 118.416 23.2637H110.682C110.747 24.403 111.069 25.2754 111.648 25.8809C112.228 26.4863 112.951 26.7891 113.816 26.7891C114.461 26.7891 115.011 26.6198 115.467 26.2812C115.923 25.9427 116.284 25.4023 116.551 24.6602ZM110.779 21.8184H116.57C116.492 20.946 116.271 20.2917 115.906 19.8555C115.346 19.1784 114.62 18.8398 113.729 18.8398C112.921 18.8398 112.241 19.11 111.688 19.6504C111.141 20.1908 110.838 20.9134 110.779 21.8184ZM126.375 28V13.6836H131.307C132.42 13.6836 133.27 13.752 133.855 13.8887C134.676 14.0775 135.376 14.4193 135.955 14.9141C136.71 15.5521 137.273 16.3691 137.645 17.3652C138.022 18.3548 138.211 19.4876 138.211 20.7637C138.211 21.8509 138.084 22.8145 137.83 23.6543C137.576 24.4941 137.251 25.1908 136.854 25.7441C136.456 26.291 136.02 26.724 135.545 27.043C135.076 27.3555 134.507 27.5931 133.836 27.7559C133.172 27.9186 132.407 28 131.541 28H126.375ZM128.27 26.3105H131.326C132.27 26.3105 133.009 26.2227 133.543 26.0469C134.083 25.8711 134.513 25.6237 134.832 25.3047C135.281 24.8555 135.63 24.2533 135.877 23.498C136.131 22.7363 136.258 21.8151 136.258 20.7344C136.258 19.237 136.01 18.0879 135.516 17.2871C135.027 16.4798 134.432 15.9395 133.729 15.666C133.221 15.4707 132.404 15.373 131.277 15.373H128.27V26.3105ZM140.613 15.7051V13.6836H142.371V15.7051H140.613ZM140.613 28V17.6289H142.371V28H140.613ZM151.824 24.2012L153.553 24.4258C153.364 25.6172 152.879 26.5514 152.098 27.2285C151.323 27.8991 150.369 28.2344 149.236 28.2344C147.817 28.2344 146.674 27.7721 145.809 26.8477C144.949 25.9167 144.52 24.5853 144.52 22.8535C144.52 21.7337 144.705 20.7539 145.076 19.9141C145.447 19.0742 146.01 18.446 146.766 18.0293C147.527 17.6061 148.354 17.3945 149.246 17.3945C150.372 17.3945 151.294 17.681 152.01 18.2539C152.726 18.8203 153.185 19.6276 153.387 20.6758L151.678 20.9395C151.515 20.2428 151.225 19.7188 150.809 19.3672C150.398 19.0156 149.9 18.8398 149.314 18.8398C148.429 18.8398 147.71 19.1589 147.156 19.7969C146.603 20.4284 146.326 21.431 146.326 22.8047C146.326 24.1979 146.593 25.2103 147.127 25.8418C147.661 26.4733 148.357 26.7891 149.217 26.7891C149.907 26.7891 150.483 26.5775 150.945 26.1543C151.408 25.7311 151.701 25.0801 151.824 24.2012ZM158.895 26.4277L159.148 27.9805C158.654 28.0846 158.211 28.1367 157.82 28.1367C157.182 28.1367 156.688 28.0358 156.336 27.834C155.984 27.6322 155.737 27.3685 155.594 27.043C155.451 26.7109 155.379 26.0176 155.379 24.9629V18.9961H154.09V17.6289H155.379V15.0605L157.127 14.0059V17.6289H158.895V18.9961H157.127V25.0605C157.127 25.5618 157.156 25.8841 157.215 26.0273C157.28 26.1706 157.381 26.2845 157.518 26.3691C157.661 26.4538 157.863 26.4961 158.123 26.4961C158.318 26.4961 158.576 26.4733 158.895 26.4277ZM160.633 15.7051V13.6836H162.391V15.7051H160.633ZM160.633 28V17.6289H162.391V28H160.633ZM164.422 22.8145C164.422 20.8939 164.956 19.4714 166.023 18.5469C166.915 17.7786 168.003 17.3945 169.285 17.3945C170.711 17.3945 171.876 17.8633 172.781 18.8008C173.686 19.7318 174.139 21.0208 174.139 22.668C174.139 24.0026 173.937 25.054 173.533 25.8223C173.136 26.584 172.553 27.1764 171.785 27.5996C171.023 28.0228 170.19 28.2344 169.285 28.2344C167.833 28.2344 166.658 27.7689 165.76 26.8379C164.868 25.9069 164.422 24.5658 164.422 22.8145ZM166.229 22.8145C166.229 24.1426 166.518 25.1387 167.098 25.8027C167.677 26.4603 168.406 26.7891 169.285 26.7891C170.158 26.7891 170.883 26.457 171.463 25.793C172.042 25.1289 172.332 24.1165 172.332 22.7559C172.332 21.4733 172.039 20.5033 171.453 19.8457C170.874 19.1816 170.151 18.8496 169.285 18.8496C168.406 18.8496 167.677 19.1784 167.098 19.8359C166.518 20.4935 166.229 21.4863 166.229 22.8145ZM176.209 28V17.6289H177.791V19.1035C178.553 17.9642 179.653 17.3945 181.092 17.3945C181.717 17.3945 182.29 17.5085 182.811 17.7363C183.338 17.9577 183.732 18.2507 183.992 18.6152C184.253 18.9798 184.435 19.4128 184.539 19.9141C184.604 20.2396 184.637 20.8092 184.637 21.623V28H182.879V21.6914C182.879 20.9753 182.811 20.4414 182.674 20.0898C182.537 19.7318 182.293 19.4486 181.941 19.2402C181.596 19.0254 181.189 18.918 180.721 18.918C179.972 18.918 179.324 19.1556 178.777 19.6309C178.237 20.1061 177.967 21.0078 177.967 22.3359V28H176.209ZM194.109 26.7207C193.458 27.2741 192.83 27.6647 192.225 27.8926C191.626 28.1204 190.981 28.2344 190.291 28.2344C189.152 28.2344 188.276 27.9577 187.664 27.4043C187.052 26.8444 186.746 26.1315 186.746 25.2656C186.746 24.7578 186.86 24.2956 187.088 23.8789C187.322 23.4557 187.625 23.1172 187.996 22.8633C188.374 22.6094 188.797 22.4173 189.266 22.2871C189.611 22.196 190.132 22.1081 190.828 22.0234C192.247 21.8542 193.292 21.6523 193.963 21.418C193.969 21.1771 193.973 21.0241 193.973 20.959C193.973 20.2428 193.807 19.7383 193.475 19.4453C193.025 19.0482 192.358 18.8496 191.473 18.8496C190.646 18.8496 190.034 18.9961 189.637 19.2891C189.246 19.5755 188.956 20.0866 188.768 20.8223L187.049 20.5879C187.205 19.8522 187.462 19.2598 187.82 18.8105C188.178 18.3548 188.696 18.0065 189.373 17.7656C190.05 17.5182 190.835 17.3945 191.727 17.3945C192.612 17.3945 193.331 17.4987 193.885 17.707C194.438 17.9154 194.845 18.179 195.105 18.498C195.366 18.8105 195.548 19.2077 195.652 19.6895C195.711 19.9889 195.74 20.5293 195.74 21.3105V23.6543C195.74 25.2884 195.776 26.3236 195.848 26.7598C195.926 27.1895 196.076 27.6029 196.297 28H194.461C194.279 27.6354 194.161 27.209 194.109 26.7207ZM193.963 22.7949C193.325 23.0553 192.368 23.2767 191.092 23.459C190.369 23.5632 189.858 23.6803 189.559 23.8105C189.259 23.9408 189.028 24.1328 188.865 24.3867C188.702 24.6341 188.621 24.9108 188.621 25.2168C188.621 25.6855 188.797 26.0762 189.148 26.3887C189.507 26.7012 190.027 26.8574 190.711 26.8574C191.388 26.8574 191.99 26.7109 192.518 26.418C193.045 26.1185 193.432 25.7116 193.68 25.1973C193.868 24.8001 193.963 24.2142 193.963 23.4395V22.7949ZM198.455 28V17.6289H200.037V19.2012C200.441 18.4655 200.812 17.9805 201.15 17.7461C201.495 17.5117 201.873 17.3945 202.283 17.3945C202.876 17.3945 203.478 17.5833 204.09 17.9609L203.484 19.5918C203.055 19.3379 202.625 19.2109 202.195 19.2109C201.811 19.2109 201.466 19.3281 201.16 19.5625C200.854 19.7904 200.636 20.1094 200.506 20.5195C200.311 21.1445 200.213 21.8281 200.213 22.5703V28H198.455ZM205.057 31.9941L204.861 30.3438C205.245 30.4479 205.581 30.5 205.867 30.5C206.258 30.5 206.57 30.4349 206.805 30.3047C207.039 30.1745 207.231 29.9922 207.381 29.7578C207.492 29.582 207.671 29.1458 207.918 28.4492C207.951 28.3516 208.003 28.2083 208.074 28.0195L204.139 17.6289H206.033L208.191 23.6348C208.471 24.3965 208.722 25.1973 208.943 26.0371C209.145 25.2298 209.386 24.4421 209.666 23.6738L211.883 17.6289H213.641L209.695 28.1758C209.272 29.3151 208.943 30.0996 208.709 30.5293C208.396 31.1087 208.038 31.5319 207.635 31.7988C207.231 32.0723 206.749 32.209 206.189 32.209C205.851 32.209 205.473 32.1374 205.057 31.9941Z" fill="white"/>
<path d="M66.4999 21.8333H71.4999M66.4999 25.1666H68.9999M62.3333 14.3333V27.6666C62.3333 28.1087 62.5088 28.5326 62.8214 28.8451C63.134 29.1577 63.5579 29.3333 63.9999 29.3333H73.9999C74.4419 29.3333 74.8659 29.1577 75.1784 28.8451C75.491 28.5326 75.6666 28.1087 75.6666 27.6666V17.9516C75.6666 17.7296 75.6222 17.5098 75.536 17.3052C75.4499 17.1005 75.3237 16.9152 75.1649 16.76L71.4649 13.1416C71.1536 12.8372 70.7354 12.6667 70.2999 12.6666H63.9999C63.5579 12.6666 63.134 12.8422 62.8214 13.1548C62.5088 13.4673 62.3333 13.8913 62.3333 14.3333Z" stroke="white" stroke-linecap="round" stroke-linejoin="round"/>
<path d="M70.6665 12.6666V16C70.6665 16.442 70.8421 16.8659 71.1547 17.1785C71.4672 17.491 71.8911 17.6666 72.3332 17.6666H75.6665" stroke="white" stroke-linejoin="round"/>
</g>
<defs>
<filter id="filter0_i_962_1826" x="-4" y="0" width="267" height="47" filterUnits="userSpaceOnUse" color-interpolation-filters="sRGB">
<feFlood flood-opacity="0" result="BackgroundImageFix"/>
<feBlend mode="normal" in="SourceGraphic" in2="BackgroundImageFix" result="shape"/>
<feColorMatrix in="SourceAlpha" type="matrix" values="0 0 0 0 0 0 0 0 0 0 0 0 0 0 0 0 0 0 127 0" result="hardAlpha"/>
<feOffset dx="-4" dy="3"/>
<feGaussianBlur stdDeviation="5"/>
<feComposite in2="hardAlpha" operator="arithmetic" k2="-1" k3="1"/>
<feColorMatrix type="matrix" values="0 0 0 0 0.588385 0 0 0 0 0.588385 0 0 0 0 0.588385 0 0 0 0.08 0"/>
<feBlend mode="normal" in2="shape" result="effect1_innerShadow_962_1826"/>
</filter>
<linearGradient id="paint0_linear_962_1826" x1="131.5" y1="0" x2="131.5" y2="53.2093" gradientUnits="userSpaceOnUse">
<stop stop-color="#F8A716"/>
<stop offset="1" stop-color="#E75126"/>
</linearGradient>
</defs>
</svg>
