<svg width="16" height="10" viewBox="0 0 16 10" fill="none" xmlns="http://www.w3.org/2000/svg">
<path d="M7.16667 10C6.70643 10 6.33333 9.6269 6.33333 9.16667C6.33333 8.70643 6.70643 8.33333 7.16667 8.33333H8.83333C9.29357 8.33333 9.66667 8.70643 9.66667 9.16667C9.66667 9.6269 9.29357 10 8.83333 10H7.16667ZM3.83333 5.83333C3.3731 5.83333 3 5.46024 3 5C3 4.53976 3.3731 4.16667 3.83333 4.16667H12.1667C12.6269 4.16667 13 4.53976 13 5C13 5.46024 12.6269 5.83333 12.1667 5.83333H3.83333ZM1.33333 1.66667C0.873096 1.66667 0.5 1.29357 0.5 0.833333C0.5 0.373096 0.873096 0 1.33333 0H14.6667C15.1269 0 15.5 0.373096 15.5 0.833333C15.5 1.29357 15.1269 1.66667 14.6667 1.66667H1.33333Z" fill="#36556B"/>
</svg>
