<svg width="108" height="94" viewBox="0 0 108 94" fill="none" xmlns="http://www.w3.org/2000/svg">
<path d="M85.3335 23.5H50.0835L42.2502 15.6666H22.6668C18.3585 15.6666 14.8335 19.1916 14.8335 23.5V70.5C14.8335 74.8083 18.3585 78.3333 22.6668 78.3333H80.8293L93.1668 56.7916V31.3333C93.1668 27.025 89.6418 23.5 85.3335 23.5Z" fill="#FFA000"/>
<path d="M85.3335 23.5H22.6668C18.3585 23.5 14.8335 27.025 14.8335 31.3333V70.5C14.8335 74.8083 18.3585 78.3333 22.6668 78.3333H85.3335C89.6418 78.3333 93.1668 74.8083 93.1668 70.5V31.3333C93.1668 27.025 89.6418 23.5 85.3335 23.5Z" fill="#FFCA28"/>
</svg>
