<svg width="172" height="44" viewBox="0 0 172 44" fill="none" xmlns="http://www.w3.org/2000/svg">
<path d="M0 0H172C167.642 2.71902 164.723 7.23888 164.037 12.3294L161.062 34.4021C160.322 39.8985 155.63 44 150.084 44H22.9248C16.8301 44 11.7034 39.4314 11.004 33.377L8.65048 13.002C8.01859 7.53168 4.80148 2.69624 0 0Z" fill="url(#paint0_linear_358_1718)"/>
<path d="M49.3825 13.3838C49.2716 13.2973 49.135 13.2504 48.9944 13.2504C48.8538 13.2504 48.7172 13.2973 48.6062 13.3838L39.625 20.3869L40.4019 21.3694L41.5 20.5132V28.25C41.5007 28.5814 41.6326 28.8989 41.8668 29.1332C42.1011 29.3675 42.4187 29.4994 42.75 29.5H55.25C55.5813 29.4994 55.8989 29.3675 56.1332 29.1332C56.3674 28.8989 56.4993 28.5814 56.5 28.25V20.5188L57.5981 21.375L58.375 20.3925L49.3825 13.3838ZM50.25 28.25H47.75V23.25H50.25V28.25ZM51.5 28.25V23.25C51.4997 22.9186 51.3679 22.6009 51.1335 22.3665C50.8992 22.1322 50.5814 22.0004 50.25 22H47.75C47.4186 22.0004 47.1008 22.1322 46.8665 22.3665C46.6321 22.6009 46.5003 22.9186 46.5 23.25V28.25H42.75V19.5388L49 14.67L55.25 19.545V28.25H51.5Z" fill="white"/>
<path d="M68.6016 28V13.6836H70.4961V19.5625H77.9375V13.6836H79.832V28H77.9375V21.252H70.4961V28H68.6016ZM82.1172 22.8145C82.1172 20.8939 82.651 19.4714 83.7188 18.5469C84.6107 17.7786 85.6979 17.3945 86.9805 17.3945C88.4062 17.3945 89.5716 17.8633 90.4766 18.8008C91.3815 19.7318 91.834 21.0208 91.834 22.668C91.834 24.0026 91.6322 25.054 91.2285 25.8223C90.8314 26.584 90.2487 27.1764 89.4805 27.5996C88.7188 28.0228 87.8854 28.2344 86.9805 28.2344C85.5286 28.2344 84.3535 27.7689 83.4551 26.8379C82.5632 25.9069 82.1172 24.5658 82.1172 22.8145ZM83.9238 22.8145C83.9238 24.1426 84.2135 25.1387 84.793 25.8027C85.3724 26.4603 86.1016 26.7891 86.9805 26.7891C87.8529 26.7891 88.5788 26.457 89.1582 25.793C89.7376 25.1289 90.0273 24.1165 90.0273 22.7559C90.0273 21.4733 89.7344 20.5033 89.1484 19.8457C88.569 19.1816 87.8464 18.8496 86.9805 18.8496C86.1016 18.8496 85.3724 19.1784 84.793 19.8359C84.2135 20.4935 83.9238 21.4863 83.9238 22.8145ZM93.9043 28V17.6289H95.4766V19.084C95.8021 18.5762 96.235 18.1693 96.7754 17.8633C97.3158 17.5508 97.931 17.3945 98.6211 17.3945C99.3893 17.3945 100.018 17.554 100.506 17.873C101.001 18.1921 101.349 18.638 101.551 19.2109C102.371 18 103.439 17.3945 104.754 17.3945C105.783 17.3945 106.574 17.681 107.127 18.2539C107.68 18.8203 107.957 19.696 107.957 20.8809V28H106.209V21.4668C106.209 20.7637 106.15 20.2591 106.033 19.9531C105.923 19.6406 105.717 19.39 105.418 19.2012C105.118 19.0124 104.767 18.918 104.363 18.918C103.634 18.918 103.029 19.1621 102.547 19.6504C102.065 20.1322 101.824 20.9069 101.824 21.9746V28H100.066V21.2617C100.066 20.4805 99.9232 19.8945 99.6367 19.5039C99.3503 19.1133 98.8815 18.918 98.2305 18.918C97.7357 18.918 97.2767 19.0482 96.8535 19.3086C96.4368 19.569 96.1341 19.9499 95.9453 20.4512C95.7565 20.9525 95.6621 21.6751 95.6621 22.6191V28H93.9043ZM117.664 24.6602L119.48 24.8848C119.194 25.946 118.663 26.7695 117.889 27.3555C117.114 27.9414 116.124 28.2344 114.92 28.2344C113.403 28.2344 112.199 27.7689 111.307 26.8379C110.421 25.9004 109.979 24.5885 109.979 22.9023C109.979 21.1576 110.428 19.8034 111.326 18.8398C112.225 17.8763 113.39 17.3945 114.822 17.3945C116.209 17.3945 117.342 17.8665 118.221 18.8105C119.1 19.7546 119.539 21.0827 119.539 22.7949C119.539 22.8991 119.536 23.0553 119.529 23.2637H111.795C111.86 24.403 112.182 25.2754 112.762 25.8809C113.341 26.4863 114.064 26.7891 114.93 26.7891C115.574 26.7891 116.124 26.6198 116.58 26.2812C117.036 25.9427 117.397 25.4023 117.664 24.6602ZM111.893 21.8184H117.684C117.605 20.946 117.384 20.2917 117.02 19.8555C116.46 19.1784 115.734 18.8398 114.842 18.8398C114.035 18.8398 113.354 19.11 112.801 19.6504C112.254 20.1908 111.951 20.9134 111.893 21.8184Z" fill="white"/>
<defs>
<linearGradient id="paint0_linear_358_1718" x1="86" y1="0" x2="86" y2="53.2093" gradientUnits="userSpaceOnUse">
<stop stop-color="#F8A716"/>
<stop offset="1" stop-color="#E75126"/>
</linearGradient>
</defs>
</svg>
