<svg width="14" height="14" viewBox="0 0 14 14" fill="none" xmlns="http://www.w3.org/2000/svg">
<path d="M0.4375 8.6626C0.553532 8.6626 0.664812 8.70869 0.746859 8.79074C0.828906 8.87279 0.875 8.98407 0.875 9.1001V11.2876C0.875 11.5197 0.967187 11.7422 1.13128 11.9063C1.29538 12.0704 1.51794 12.1626 1.75 12.1626H12.25C12.4821 12.1626 12.7046 12.0704 12.8687 11.9063C13.0328 11.7422 13.125 11.5197 13.125 11.2876V9.1001C13.125 8.98407 13.1711 8.87279 13.2531 8.79074C13.3352 8.70869 13.4465 8.6626 13.5625 8.6626C13.6785 8.6626 13.7898 8.70869 13.8719 8.79074C13.9539 8.87279 14 8.98407 14 9.1001V11.2876C14 11.7517 13.8156 12.1968 13.4874 12.525C13.1592 12.8532 12.7141 13.0376 12.25 13.0376H1.75C1.28587 13.0376 0.840752 12.8532 0.512563 12.525C0.184374 12.1968 0 11.7517 0 11.2876V9.1001C0 8.98407 0.0460936 8.87279 0.128141 8.79074C0.210188 8.70869 0.321468 8.6626 0.4375 8.6626Z" fill="#36556B" stroke="#36556B" stroke-width="0.5"/>
<path d="M7.3092 10.3715C7.26856 10.4122 7.22028 10.4445 7.16713 10.4666C7.11397 10.4886 7.05699 10.5 6.99945 10.5C6.9419 10.5 6.88492 10.4886 6.83177 10.4666C6.77862 10.4445 6.73034 10.4122 6.6897 10.3715L4.0647 7.74647C3.98255 7.66432 3.93639 7.5529 3.93639 7.43672C3.93639 7.32054 3.98255 7.20912 4.0647 7.12697C4.14685 7.04482 4.25827 6.99867 4.37445 6.99867C4.49063 6.99867 4.60205 7.04482 4.6842 7.12697L6.56195 9.00559L6.56195 1.31172C6.56195 1.19569 6.60804 1.08441 6.69009 1.00236C6.77213 0.920311 6.88341 0.874218 6.99945 0.874218C7.11548 0.874218 7.22676 0.920311 7.30881 1.00236C7.39085 1.08441 7.43695 1.19569 7.43695 1.31172L7.43695 9.00559L9.3147 7.12697C9.35537 7.08629 9.40366 7.05402 9.45681 7.03201C9.50996 7.01 9.56692 6.99867 9.62445 6.99867C9.68197 6.99867 9.73894 7.01 9.79208 7.03201C9.84523 7.05402 9.89352 7.08629 9.9342 7.12697C9.97487 7.16764 10.0071 7.21594 10.0292 7.26908C10.0512 7.32223 10.0625 7.37919 10.0625 7.43672C10.0625 7.49424 10.0512 7.55121 10.0292 7.60435C10.0071 7.6575 9.97487 7.70579 9.9342 7.74647L7.3092 10.3715Z" fill="#36556B" stroke="#36556B" stroke-width="0.5"/>
</svg>
