<svg width="20" height="20" viewBox="0 0 20 20" fill="none" xmlns="http://www.w3.org/2000/svg">
<path d="M10.3825 1.38379C10.2716 1.29732 10.135 1.25037 9.99438 1.25037C9.85375 1.25037 9.71715 1.29732 9.60625 1.38379L0.625 8.38691L1.40188 9.36941L2.5 8.51316V16.25C2.50066 16.5814 2.63257 16.8989 2.86685 17.1332C3.10112 17.3675 3.41868 17.4994 3.75 17.5H16.25C16.5813 17.4994 16.8989 17.3675 17.1332 17.1332C17.3674 16.8989 17.4993 16.5814 17.5 16.25V8.51879L18.5981 9.37504L19.375 8.39254L10.3825 1.38379ZM11.25 16.25H8.75V11.25H11.25V16.25ZM12.5 16.25V11.25C12.4997 10.9186 12.3679 10.6009 12.1335 10.3665C11.8992 10.1322 11.5814 10.0004 11.25 10H8.75C8.41858 10.0004 8.10083 10.1322 7.86648 10.3665C7.63213 10.6009 7.50033 10.9186 7.5 11.25V16.25H3.75V7.53879L10 2.67004L16.25 7.54504V16.25H12.5Z" fill="white"/>
</svg>
