<svg width="20" height="17" viewBox="0 0 20 17" fill="none" xmlns="http://www.w3.org/2000/svg">
<path d="M10.3825 0.383785C10.2716 0.297322 10.135 0.250366 9.99438 0.250366C9.85375 0.250366 9.71715 0.297322 9.60625 0.383785L0.625 7.38691L1.40188 8.36941L2.5 7.51316V15.25C2.50066 15.5814 2.63257 15.8989 2.86685 16.1332C3.10112 16.3675 3.41868 16.4994 3.75 16.5H16.25C16.5813 16.4994 16.8989 16.3675 17.1332 16.1332C17.3674 15.8989 17.4993 15.5814 17.5 15.25V7.51879L18.5981 8.37504L19.375 7.39254L10.3825 0.383785ZM11.25 15.25H8.75V10.25H11.25V15.25ZM12.5 15.25V10.25C12.4997 9.91862 12.3679 9.60087 12.1335 9.36652C11.8992 9.13217 11.5814 9.00037 11.25 9.00004H8.75C8.41858 9.00037 8.10083 9.13217 7.86648 9.36652C7.63213 9.60087 7.50033 9.91862 7.5 10.25V15.25H3.75V6.53879L10 1.67004L16.25 6.54504V15.25H12.5Z" fill="#36556B"/>
</svg>
