<svg width="405" height="378" viewBox="0 0 405 378" fill="none" xmlns="http://www.w3.org/2000/svg">
<g clip-path="url(#clip0_432_1315)">
<path d="M390.243 45.8393H394.265C397.346 22.1966 373.639 4.2426 346.448 2.05078C357.127 4.49957 366.899 9.90618 374.645 17.6509C382.391 25.3956 387.797 35.165 390.243 45.8393Z" fill="#FFE7DB"/>
<path d="M327.657 116.379C325.381 116.352 323.2 116.275 321.115 116.149C323.279 116.483 325.475 116.56 327.657 116.379Z" fill="#F2F2F2"/>
<path d="M277.049 58.695C277.574 27.5526 302.402 2.20839 333.565 2.20839C337.845 1.75418 342.158 1.70142 346.447 2.05078C337.938 0.12074 329.103 0.130042 320.598 2.07799C312.093 4.02594 304.136 7.86256 297.316 13.3033C290.497 18.7441 284.99 25.6495 281.205 33.5073C277.42 41.3651 275.453 49.9738 275.45 58.695C275.45 88.2247 276.507 113.418 321.115 116.149C298.515 112.718 276.637 83.1487 277.049 58.695Z" fill="#F2F2F2"/>
<path d="M389.577 59.6047C379.361 77.0718 339.196 89.8817 333.565 115.182C331.65 115.811 329.667 116.213 327.657 116.379C329.508 116.402 331.417 116.395 333.402 116.349C365.142 116.349 391.177 91.2071 391.669 59.6048L389.577 59.6047Z" fill="#FFE7DB"/>
<path d="M338.126 101.142C330.698 85.0359 327.445 67.678 329.723 48.6616C329.371 46.4494 330.605 44.2325 332.481 43.706L366.111 34.3152C367.988 33.7937 369.796 35.1614 370.152 37.3724L378.554 89.8526C378.906 92.0648 377.673 94.2818 375.797 94.8083L342.167 104.199C340.29 104.72 338.482 103.353 338.126 101.142Z" fill="#FFE7DB"/>
<path d="M354.054 40.1208C354.539 36.3712 352.393 33.0038 349.262 32.5994C346.13 32.195 343.199 34.9068 342.714 38.6564C342.229 42.4059 344.375 45.7734 347.506 46.1778C350.638 46.5822 353.569 43.8704 354.054 40.1208Z" fill="#F2F2F2"/>
<path d="M292.556 75.4775C285.128 59.3716 281.875 42.0137 284.153 22.9973C283.801 20.7851 285.035 18.5682 286.911 18.0417L320.541 8.65093C322.418 8.12943 324.225 9.49706 324.581 11.7081L332.984 64.1883C333.336 66.4005 332.102 68.6175 330.226 69.1439L296.597 78.5347C294.72 79.0562 292.912 77.6886 292.556 75.4775Z" fill="#FFE7DB"/>
<path d="M308.484 14.4565C308.968 10.7069 306.823 7.33947 303.691 6.93507C300.56 6.53068 297.628 9.2425 297.144 12.9921C296.659 16.7416 298.805 20.1091 301.936 20.5135C305.067 20.9179 307.999 18.2061 308.484 14.4565Z" fill="#F2F2F2"/>
<path d="M338.585 249.84H0V250.942H338.585V249.84Z" fill="#3F3D56"/>
<path d="M137.724 119.895C137.325 118.497 142.909 131.303 141.581 131.458C135.53 132.151 122.124 135.279 117.91 136.964C117.72 136.942 117.53 136.92 117.346 136.892C116.894 136.843 116.453 136.771 116.018 136.688C106.205 134.833 98.7821 126.777 98.5811 117.053C98.57 116.916 98.57 116.773 98.57 116.635C98.5687 115.964 98.6041 115.293 98.676 114.625C98.7684 113.714 98.927 112.81 99.1504 111.922L99.1281 111.916C95.2211 108.249 96.8676 101.449 101.846 98.5802C104.01 97.337 106.409 96.5587 108.89 96.2952C109.563 96.2222 110.239 96.1854 110.916 96.185H117.273C118.589 95.9017 119.922 95.7085 121.264 95.6069H121.275C134.074 94.6323 144.165 102.429 143.222 111.916C143.216 111.927 143.205 111.938 143.199 111.949C142.926 112.357 142.686 112.742 142.474 113.111C142.267 113.458 142.094 113.788 141.944 114.102C140.777 116.525 143.776 119.573 141.787 120.142C139.143 120.899 148.742 145.774 138.275 145.774C143.367 147.22 138.826 123.749 137.724 119.895Z" fill="#2F2E41"/>
<path d="M196.123 360.328L204.378 360.258L208.031 327.695L195.85 327.798L196.123 360.328Z" fill="#FFB6B6"/>
<path d="M222.562 373.446C222.569 374.424 222.188 375.365 221.502 376.063C220.817 376.76 219.882 377.157 218.903 377.167L202.492 377.304L199.619 371.483L198.564 377.334L192.372 377.39L193.936 356.524L196.09 356.381L204.877 355.775L207.712 355.586L207.762 361.489L220.945 370.426C221.439 370.761 221.844 371.211 222.126 371.737C222.407 372.263 222.557 372.85 222.562 373.446Z" fill="#2F2E41"/>
<path d="M206.586 343.996C203.303 343.599 195.017 342.895 195.017 342.895C195.017 342.895 191.106 334.734 191.74 332.196C192.362 329.647 193.916 329.129 192.472 327.797C188.958 314.813 189.519 293.724 189.519 293.724C189.519 293.724 170.602 284.568 151.447 273.968C132.722 263.6 113.771 251.855 112.058 245.936C110.927 241.703 110.168 237.379 109.788 233.013C109.502 230.15 109.325 227.342 109.215 224.826C108.956 219.066 109.061 214.81 109.061 214.81L132.931 214.413L148.742 214.05H150.395V216.803L154.549 223.862C154.549 223.862 161.727 232.204 160.884 232.98C159.865 233.922 160.173 234.759 163.793 235.442C164.822 235.622 165.87 235.665 166.911 235.568C172.756 235.122 175.202 238.464 175.345 239.197C176.325 244.367 186.159 255.6 195.37 265.186H195.376C203.876 274.04 211.842 281.484 211.842 281.484L212.294 290.982L214.415 335.39C214.415 335.39 210.437 333.165 213.99 337.961C217.544 342.762 209.87 344.387 206.586 343.996Z" fill="#2F2E41"/>
<path d="M296.141 240.738L299.511 233.206L271.402 216.342L266.429 227.457L296.141 240.738Z" fill="#FFB6B6"/>
<path d="M319.074 222.163C319.967 222.563 320.664 223.301 321.014 224.214C321.363 225.128 321.335 226.143 320.937 227.036L314.236 242.01L307.745 242.2L312.629 245.592L310.105 251.244L291.771 241.144L292.536 239.127L295.64 230.888L296.647 228.232L302.039 230.642L315.653 222.377C316.164 222.067 316.741 221.886 317.337 221.849C317.933 221.812 318.529 221.92 319.074 222.163Z" fill="#2F2E41"/>
<path d="M281.682 222.508C281.663 222.551 281.64 222.59 281.62 222.625C280.085 225.442 277.564 231.961 277.407 232.363C277.403 232.37 277.4 232.378 277.4 232.387C277.4 232.387 269.084 231.958 266.958 230.434C264.829 228.899 268.051 231.327 263.141 228.115C260.602 226.446 251.906 223.84 244.116 221.711C236.869 219.73 230.412 218.172 230.412 218.172C230.412 218.172 224.704 223.365 216.434 230.54L216.43 230.544C208.749 237.194 198.851 245.556 189.259 253.044C168.723 259.081 147.047 264.313 141.629 261.373C137.82 259.204 134.207 256.707 130.832 253.91L136.412 239.292L151.168 223.847L166.701 217.539L172.777 215.07L181.285 211.618L227.352 192.911L278.366 210.572C278.366 210.572 274.813 213.442 280.596 211.928C286.301 210.439 283.287 219.488 281.682 222.508Z" fill="#2F2E41"/>
<path d="M120.646 137.514H137.173L139.775 143.255L150.844 148.184C152.283 148.826 153.551 149.797 154.546 151.019C155.541 152.241 156.235 153.68 156.571 155.219C160.557 173.428 155.515 177.212 155.353 183.215C154.802 203.588 151.964 207.641 152.281 212.67C152.376 214.175 153.295 220.127 156.252 219.566C159.209 219.006 157.615 221.358 158.315 222.273C158.92 223.063 162.1 222.015 160.104 224.64C158.107 227.265 166.642 234.423 161.413 234.423C151.497 234.423 131.664 239.378 123.952 239.378C116.239 239.378 110.279 241.664 106.874 241.581C104.799 241.53 105.448 231.858 106.277 223.481C106.465 221.585 110.109 221.634 106.839 218.117C103.569 214.601 107.418 212.773 107.425 211.848C107.432 210.864 109.279 208.387 106.975 204.336C104.67 200.285 106.794 201.961 106.694 200.689C105.923 190.885 104.818 178.385 104.818 178.385L99.9461 164.68C98.7008 161.177 98.8654 157.328 100.405 153.944C101.945 150.559 104.74 147.905 108.2 146.541L113.915 144.288L120.646 137.514Z" fill="#F36523"/>
<path d="M236.718 132.459C236.351 133.144 235.839 133.741 235.218 134.209C234.597 134.676 233.882 135.004 233.123 135.168C232.363 135.333 231.576 135.33 230.818 135.161C230.059 134.991 229.346 134.659 228.728 134.187L205.447 147.361L200.218 141.821L227.984 126.376C228.856 125.396 230.057 124.77 231.36 124.615C232.663 124.461 233.978 124.79 235.054 125.54C236.131 126.29 236.895 127.409 237.202 128.684C237.508 129.959 237.336 131.302 236.718 132.459Z" fill="#FFB6B6"/>
<path d="M131.892 163.556L131.538 167.798L177.887 167.203L224.022 141.28L217.278 130.904L176.727 147.945L147.906 148.529C143.85 148.611 139.969 150.192 137.011 152.968C134.054 155.743 132.23 159.515 131.892 163.556Z" fill="#F36523"/>
<path d="M126.299 134.49C134.612 134.49 141.351 127.754 141.351 119.446C141.351 111.137 134.612 104.402 126.299 104.402C117.986 104.402 111.248 111.137 111.248 119.446C111.248 127.754 117.986 134.49 126.299 134.49Z" fill="#FFB6B6"/>
<path d="M143.222 112.736C142.971 112.869 142.725 112.99 142.474 113.111C142.211 113.237 141.949 113.364 141.687 113.48C136.647 115.765 132.544 116.018 130.055 112.736C129.988 111.01 129.6 109.31 128.911 107.726C129.033 109.497 128.566 111.258 127.582 112.736H122.57C117.407 116.161 114.756 116.519 118.339 127.763C119.339 130.896 123.311 149.127 121.748 151.83C121.296 151.781 116.453 136.771 116.018 136.688C106.205 134.833 98.782 126.777 98.5811 117.053C98.5922 116.558 98.6257 116.062 98.6759 115.578C99.3224 114.606 100.033 113.679 100.802 112.802C100.799 110.203 101.396 107.638 102.549 105.309C104.008 102.357 106.282 99.8844 109.102 98.1836C110.783 97.3689 112.536 96.7109 114.338 96.2179C114.382 96.2069 114.421 96.1959 114.466 96.1849C115.018 96.0362 115.582 95.8985 116.146 95.7829C117.31 95.5371 118.488 95.3588 119.673 95.2488C119.757 95.2433 119.841 95.2378 119.919 95.2378C120.392 95.2389 120.857 95.3663 121.264 95.6067C121.27 95.6067 121.27 95.6122 121.275 95.6122C121.567 95.7823 121.821 96.0088 122.023 96.2785C122.38 96.7322 122.572 97.2929 122.57 97.8697H128.152C128.358 97.8697 128.565 97.8753 128.771 97.8863C132.496 98.0135 136.04 99.5256 138.708 102.127C141.377 104.727 142.978 108.23 143.199 111.949C143.216 112.213 143.222 112.472 143.222 112.736Z" fill="#2F2E41"/>
<path d="M105.772 115.489C111.249 115.489 115.688 111.052 115.688 105.578C115.688 100.105 111.249 95.6672 105.772 95.6672C100.296 95.6672 95.856 100.105 95.856 105.578C95.856 111.052 100.296 115.489 105.772 115.489Z" fill="#2F2E41"/>
<path d="M117.892 97.8697C118.081 103.34 113.452 107.781 107.976 107.781C105.346 107.781 102.824 106.737 100.964 104.878C99.1043 103.019 98.0596 100.498 98.0596 97.8697C98.0596 92.3959 104.692 92.3393 107.976 87.9586C112.621 81.7615 117.636 90.4923 117.892 97.8697Z" fill="#2F2E41"/>
<path d="M130.857 252.913C129.317 230.077 133.825 208.597 146.343 188.912C146.658 187.617 147.474 186.5 148.612 185.805C149.75 185.111 151.118 184.896 152.414 185.208L200.774 196.897C202.069 197.212 203.187 198.028 203.882 199.165C204.577 200.303 204.792 201.669 204.48 202.965L188.993 266.966C188.678 268.261 187.862 269.378 186.724 270.073C185.586 270.767 184.219 270.982 182.923 270.67L134.563 258.981C133.268 258.666 132.15 257.85 131.455 256.713C130.76 255.575 130.545 254.209 130.857 252.913Z" fill="#FFE7DB"/>
<path opacity="0.2" d="M140.334 257.763C139.038 257.448 137.921 256.633 137.226 255.495C136.531 254.358 136.316 252.991 136.628 251.696C135.088 228.86 139.596 207.379 152.114 187.694C152.325 186.845 152.757 186.067 153.366 185.438L152.414 185.208C151.118 184.896 149.75 185.111 148.612 185.805C147.474 186.5 146.658 187.617 146.343 188.912C133.825 208.597 129.317 230.077 130.857 252.913C130.545 254.209 130.76 255.575 131.455 256.713C132.15 257.85 133.267 258.666 134.563 258.981L182.923 270.67C183.782 270.875 184.681 270.849 185.527 270.595C186.374 270.341 187.138 269.867 187.742 269.223L140.334 257.763Z" fill="black"/>
<path d="M184.119 230.821L151.691 223.077C151.175 222.953 150.73 222.63 150.453 222.179C150.175 221.727 150.089 221.184 150.212 220.668C150.335 220.153 150.658 219.707 151.11 219.43C151.561 219.152 152.105 219.065 152.621 219.188L185.049 226.931C185.564 227.056 186.008 227.379 186.284 227.831C186.56 228.282 186.646 228.824 186.523 229.339C186.4 229.854 186.078 230.298 185.628 230.576C185.177 230.854 184.635 230.942 184.119 230.821Z" fill="white"/>
<path d="M161.375 214.115L154.24 212.412C153.725 212.29 153.278 211.968 153 211.517C152.721 211.066 152.633 210.524 152.754 210.008C152.876 209.492 153.197 209.046 153.648 208.767C154.099 208.488 154.642 208.399 155.158 208.519L155.17 208.522L162.304 210.226C162.819 210.351 163.263 210.674 163.539 211.126C163.815 211.577 163.901 212.119 163.778 212.634C163.655 213.148 163.333 213.593 162.883 213.871C162.432 214.149 161.89 214.237 161.375 214.115Z" fill="white"/>
<path d="M180.032 247.92L147.604 240.176C147.089 240.051 146.645 239.728 146.369 239.277C146.092 238.825 146.006 238.283 146.129 237.768C146.252 237.253 146.574 236.808 147.025 236.531C147.476 236.253 148.018 236.165 148.534 236.287L180.962 244.03C181.218 244.09 181.46 244.2 181.673 244.353C181.887 244.506 182.068 244.7 182.207 244.924C182.345 245.147 182.438 245.396 182.481 245.655C182.523 245.915 182.514 246.18 182.454 246.436C182.393 246.691 182.283 246.933 182.129 247.146C181.976 247.359 181.781 247.54 181.558 247.678C181.334 247.816 181.085 247.909 180.825 247.951C180.566 247.993 180.301 247.983 180.045 247.923L180.032 247.92Z" fill="white"/>
<path d="M182.076 239.37L149.647 231.626C149.131 231.504 148.685 231.181 148.407 230.73C148.128 230.278 148.041 229.735 148.164 229.219C148.286 228.703 148.609 228.257 149.061 227.979C149.512 227.701 150.056 227.613 150.572 227.736L150.577 227.737L183.005 235.481C183.52 235.605 183.964 235.929 184.241 236.38C184.517 236.831 184.603 237.374 184.48 237.889C184.357 238.403 184.035 238.848 183.584 239.126C183.134 239.404 182.591 239.491 182.076 239.37Z" fill="white"/>
<path d="M175.221 199.21C179.827 199.21 183.562 195.477 183.562 190.873C183.562 186.269 179.827 182.536 175.221 182.536C170.614 182.536 166.879 186.269 166.879 190.873C166.879 195.477 170.614 199.21 175.221 199.21Z" fill="#F36523"/>
<path d="M133.163 257.686C132.483 257.31 131.892 256.791 131.432 256.165C130.972 255.538 130.654 254.819 130.499 254.058C130.345 253.296 130.357 252.51 130.537 251.754C130.716 250.998 131.057 250.29 131.537 249.679L118.657 226.242L124.267 221.087L139.361 249.035C140.331 249.919 140.942 251.128 141.079 252.432C141.217 253.736 140.87 255.046 140.107 256.112C139.343 257.178 138.214 257.928 136.934 258.218C135.654 258.508 134.313 258.319 133.163 257.686Z" fill="#FFB6B6"/>
<path d="M118.119 153.942L104.266 152.606C103.62 152.543 102.968 152.617 102.351 152.821C101.735 153.026 101.168 153.357 100.688 153.793C100.207 154.229 99.823 154.761 99.5602 155.355C99.2974 155.948 99.1616 156.59 99.1616 157.239V198.443L124.503 244.885L134.97 238.277L118.443 197.532L118.119 153.942Z" fill="#F36523"/>
<path d="M227.486 150.598C230.698 127.937 239.547 107.85 255.863 91.1736C256.439 89.9715 257.468 89.0467 258.725 88.6022C259.982 88.1576 261.364 88.2296 262.568 88.8023L307.47 110.223C308.672 110.798 309.598 111.827 310.042 113.083C310.487 114.34 310.415 115.721 309.842 116.924L281.465 176.349C280.889 177.551 279.86 178.476 278.603 178.92C277.346 179.365 275.964 179.293 274.76 178.72L229.858 157.3C228.655 156.724 227.73 155.696 227.285 154.439C226.841 153.183 226.913 151.801 227.486 150.598Z" fill="#FFE7DB"/>
<path opacity="0.2" d="M235.756 157.3C234.554 156.724 233.628 155.696 233.184 154.439C232.739 153.183 232.811 151.801 233.384 150.598C236.596 127.937 245.445 107.85 261.761 91.1735C262.143 90.3861 262.726 89.7135 263.452 89.2238L262.568 88.8023C261.364 88.2296 259.982 88.1576 258.725 88.6022C257.468 89.0467 256.439 89.9714 255.863 91.1735C239.547 107.85 230.698 127.937 227.486 150.598C226.913 151.801 226.841 153.183 227.285 154.439C227.73 155.696 228.655 156.724 229.858 157.3L274.759 178.72C275.558 179.098 276.443 179.258 277.323 179.184C278.204 179.11 279.05 178.804 279.774 178.299L235.756 157.3Z" fill="black"/>
<path d="M284.165 139.977L254.035 125.706C253.556 125.479 253.186 125.07 253.008 124.571C252.83 124.072 252.857 123.522 253.084 123.043C253.312 122.563 253.72 122.194 254.22 122.016C254.719 121.838 255.269 121.865 255.749 122.092L285.878 136.363C286.355 136.591 286.723 136.999 286.9 137.498C287.077 137.996 287.049 138.545 286.822 139.023C286.596 139.501 286.189 139.87 285.691 140.048C285.192 140.227 284.644 140.201 284.165 139.977Z" fill="white"/>
<path d="M265.362 118.937L258.733 115.797C258.495 115.685 258.282 115.528 258.105 115.334C257.927 115.14 257.79 114.913 257.701 114.666C257.612 114.418 257.572 114.156 257.584 113.894C257.596 113.631 257.66 113.374 257.772 113.136C257.884 112.898 258.042 112.685 258.236 112.508C258.43 112.331 258.658 112.194 258.905 112.105C259.152 112.016 259.415 111.977 259.677 111.989C259.94 112.002 260.198 112.066 260.435 112.178L260.447 112.183L267.075 115.323C267.553 115.551 267.921 115.959 268.098 116.458C268.276 116.957 268.248 117.505 268.021 117.983C267.794 118.462 267.387 118.831 266.888 119.009C266.39 119.188 265.841 119.162 265.362 118.937Z" fill="white"/>
<path d="M276.632 155.863L246.503 141.592C246.025 141.364 245.658 140.956 245.48 140.457C245.303 139.959 245.331 139.41 245.557 138.932C245.784 138.453 246.192 138.085 246.69 137.906C247.188 137.727 247.737 137.753 248.217 137.979L278.346 152.249C278.584 152.361 278.797 152.519 278.974 152.713C279.151 152.907 279.288 153.134 279.377 153.381C279.466 153.628 279.505 153.89 279.493 154.152C279.481 154.415 279.417 154.672 279.305 154.91C279.194 155.147 279.036 155.361 278.842 155.537C278.648 155.714 278.42 155.851 278.173 155.94C277.926 156.029 277.664 156.069 277.401 156.056C277.139 156.044 276.882 155.98 276.644 155.869L276.632 155.863Z" fill="white"/>
<path d="M280.399 147.92L250.269 133.649C249.79 133.423 249.42 133.015 249.241 132.516C249.062 132.016 249.089 131.467 249.315 130.987C249.542 130.508 249.95 130.138 250.449 129.959C250.949 129.78 251.499 129.807 251.979 130.033L251.983 130.035L282.112 144.306C282.59 144.534 282.957 144.943 283.134 145.441C283.312 145.94 283.284 146.488 283.057 146.966C282.83 147.445 282.423 147.813 281.925 147.992C281.427 148.171 280.878 148.145 280.399 147.92Z" fill="white"/>
<path d="M283.712 107.39C288.319 107.39 292.053 103.658 292.053 99.0532C292.053 94.4489 288.319 90.7163 283.712 90.7163C279.106 90.7163 275.371 94.4489 275.371 99.0532C275.371 103.658 279.106 107.39 283.712 107.39Z" fill="#F36523"/>
<path d="M355.692 179.955C346.645 160.341 342.684 139.202 345.459 116.043C345.03 113.349 346.532 110.649 348.817 110.007L389.773 98.5711C392.059 97.936 394.26 99.6015 394.694 102.294L404.927 166.207C405.356 168.901 403.853 171.601 401.568 172.242L360.613 183.678C358.327 184.314 356.125 182.648 355.692 179.955Z" fill="#FFE7DB"/>
<path opacity="0.2" d="M364.6 179.99C362.314 180.625 360.113 178.96 359.679 176.267C350.632 156.652 346.671 135.513 349.445 112.354C349.315 111.494 349.375 110.616 349.623 109.782L348.817 110.007C346.533 110.649 345.03 113.349 345.458 116.043C342.684 139.202 346.645 160.341 355.692 179.955C356.126 182.648 358.327 184.313 360.613 183.678L401.568 172.242C402.348 171.98 403.049 171.526 403.605 170.92C404.161 170.314 404.555 169.578 404.749 168.779L364.6 179.99Z" fill="black"/>
<path d="M388.747 136.261L361.317 144.014C360.407 144.27 359.53 143.608 359.357 142.537C359.259 142.044 359.338 141.532 359.581 141.093C359.825 140.653 360.216 140.314 360.686 140.135L388.117 132.382C389.026 132.128 389.902 132.792 390.074 133.863C390.171 134.355 390.091 134.866 389.849 135.304C389.606 135.743 389.216 136.082 388.747 136.261Z" fill="white"/>
<path d="M365.622 131.672L359.588 133.378C358.679 133.638 357.799 132.982 357.622 131.911C357.522 131.418 357.6 130.905 357.842 130.464C358.085 130.023 358.476 129.682 358.947 129.502L358.957 129.499L364.992 127.793C365.901 127.54 366.777 128.203 366.949 129.275C367.046 129.767 366.966 130.277 366.724 130.716C366.481 131.154 366.091 131.493 365.622 131.672Z" fill="white"/>
<path d="M391.52 153.313L364.089 161.067C363.18 161.32 362.304 160.657 362.132 159.585C362.035 159.093 362.115 158.583 362.357 158.144C362.6 157.706 362.99 157.367 363.459 157.188L390.889 149.434C391.798 149.174 392.678 149.831 392.855 150.901C392.955 151.394 392.877 151.907 392.634 152.348C392.392 152.79 392.001 153.13 391.53 153.31L391.52 153.313Z" fill="white"/>
<path d="M390.134 144.787L362.703 152.54C361.794 152.799 360.915 152.14 360.74 151.069C360.641 150.576 360.719 150.063 360.963 149.622C361.206 149.182 361.598 148.841 362.068 148.663L362.072 148.661L389.503 140.908C390.413 140.654 391.289 141.318 391.46 142.39C391.557 142.882 391.478 143.392 391.235 143.831C390.992 144.269 390.602 144.608 390.134 144.787Z" fill="white"/>
<path d="M375.089 105.642C375.68 101.075 373.067 96.9741 369.253 96.4816C365.44 95.9891 361.87 99.2917 361.279 103.858C360.689 108.424 363.302 112.525 367.115 113.018C370.929 113.51 374.499 110.208 375.089 105.642Z" fill="#F36523"/>
</g>
<defs>
<clipPath id="clip0_432_1315">
<rect width="405" height="376.78" fill="white" transform="translate(0 0.610107)"/>
</clipPath>
</defs>
</svg>
