<svg width="18" height="18" viewBox="0 0 18 18" fill="none" xmlns="http://www.w3.org/2000/svg">
<path d="M9.18943 0.601592C6.21091 0.59378 3.58982 2.1348 2.09177 4.46292C2.02537 4.56644 2.09959 4.70315 2.22263 4.70315H3.59568C3.68943 4.70315 3.77732 4.66214 3.83591 4.58987C3.97263 4.42386 4.11912 4.2637 4.27341 4.11136C4.91013 3.47659 5.65037 2.97659 6.47459 2.62894C7.32615 2.26956 8.2324 2.08597 9.16794 2.08597C10.1035 2.08597 11.0097 2.26761 11.8613 2.62894C12.6855 2.97659 13.4258 3.47659 14.0625 4.11136C14.6992 4.74612 15.1972 5.48636 15.5469 6.30862C15.9082 7.16019 16.0898 8.06448 16.0898 9.00003C16.0898 9.93558 15.9062 10.8399 15.5469 11.6914C15.1992 12.5137 14.6992 13.2539 14.0625 13.8887C13.4258 14.5235 12.6855 15.0235 11.8613 15.3711C11.0091 15.7311 10.0931 15.9157 9.16794 15.9141C8.2324 15.9141 7.32615 15.7305 6.47459 15.3711C5.65198 15.0238 4.90448 14.5204 4.27341 13.8887C4.11912 13.7344 3.97459 13.5742 3.83591 13.4102C3.77732 13.3379 3.68748 13.2969 3.59568 13.2969H2.22263C2.09959 13.2969 2.02341 13.4336 2.09177 13.5371C3.58787 15.8594 6.19724 17.3985 9.16794 17.3985C13.7812 17.3985 17.5273 13.6856 17.5742 9.08597C17.6211 4.41214 13.8691 0.613311 9.18943 0.601592ZM6.71521 11.1875V9.70315H0.582397C0.49646 9.70315 0.426147 9.63284 0.426147 9.5469V8.45315C0.426147 8.36722 0.49646 8.2969 0.582397 8.2969H6.71521V6.81253C6.71521 6.68167 6.86755 6.60745 6.96912 6.68948L9.7406 8.87698C9.75928 8.8916 9.77438 8.91027 9.78477 8.93159C9.79515 8.95291 9.80055 8.97632 9.80055 9.00003C9.80055 9.02374 9.79515 9.04715 9.78477 9.06847C9.77438 9.08979 9.75928 9.10846 9.7406 9.12308L6.96912 11.3106C6.86755 11.3907 6.71521 11.3184 6.71521 11.1875Z" fill="white"/>
</svg>
