<svg width="193" height="44" viewBox="0 0 193 44" fill="none" xmlns="http://www.w3.org/2000/svg">
<g filter="url(#filter0_i_962_1809)">
<path d="M0 0H193V0C188.131 2.70727 184.792 7.51836 183.959 13.0266L180.662 34.8329C179.865 40.1035 175.335 44 170.004 44H24.2694C18.2383 44 13.1442 39.5236 12.369 33.5425L9.81073 13.8051C9.03991 7.85813 5.36264 2.68369 0 0V0Z" fill="#F6F6F6"/>
<path d="M68.1896 12.6016C65.211 12.5938 62.5899 14.1348 61.0919 16.4629C61.0255 16.5664 61.0997 16.7032 61.2228 16.7032H62.5958C62.6896 16.7032 62.7774 16.6621 62.836 16.5899C62.9728 16.4239 63.1192 16.2637 63.2735 16.1114C63.9103 15.4766 64.6505 14.9766 65.4747 14.6289C66.3263 14.2696 67.2325 14.086 68.1681 14.086C69.1036 14.086 70.0099 14.2676 70.8614 14.6289C71.6856 14.9766 72.4259 15.4766 73.0626 16.1114C73.6993 16.7461 74.1974 17.4864 74.547 18.3086C74.9083 19.1602 75.0899 20.0645 75.0899 21C75.0899 21.9356 74.9063 22.8399 74.547 23.6914C74.1993 24.5137 73.6993 25.2539 73.0626 25.8887C72.4259 26.5235 71.6856 27.0235 70.8614 27.3711C70.0092 27.7311 69.0932 27.9157 68.1681 27.9141C67.2325 27.9141 66.3263 27.7305 65.4747 27.3711C64.6521 27.0238 63.9046 26.5204 63.2735 25.8887C63.1192 25.7344 62.9747 25.5742 62.836 25.4102C62.7774 25.3379 62.6876 25.2969 62.5958 25.2969H61.2228C61.0997 25.2969 61.0235 25.4336 61.0919 25.5371C62.588 27.8594 65.1974 29.3985 68.1681 29.3985C72.7813 29.3985 76.5274 25.6856 76.5743 21.086C76.6212 16.4121 72.8692 12.6133 68.1896 12.6016ZM65.7153 23.1875V21.7032H59.5825C59.4966 21.7032 59.4263 21.6328 59.4263 21.5469V20.4532C59.4263 20.3672 59.4966 20.2969 59.5825 20.2969H65.7153V18.8125C65.7153 18.6817 65.8677 18.6075 65.9692 18.6895L68.7407 20.877C68.7594 20.8916 68.7745 20.9103 68.7849 20.9316C68.7953 20.9529 68.8007 20.9763 68.8007 21C68.8007 21.0237 68.7953 21.0471 68.7849 21.0685C68.7745 21.0898 68.7594 21.1085 68.7407 21.1231L65.9692 23.3106C65.8677 23.3907 65.7153 23.3184 65.7153 23.1875Z" fill="#36556B"/>
<path d="M87.4648 28V13.6836H89.3594V26.3105H96.4102V28H87.4648ZM97.7969 22.8145C97.7969 20.8939 98.3307 19.4714 99.3984 18.5469C100.29 17.7786 101.378 17.3945 102.66 17.3945C104.086 17.3945 105.251 17.8633 106.156 18.8008C107.061 19.7318 107.514 21.0208 107.514 22.668C107.514 24.0026 107.312 25.054 106.908 25.8223C106.511 26.584 105.928 27.1764 105.16 27.5996C104.398 28.0228 103.565 28.2344 102.66 28.2344C101.208 28.2344 100.033 27.7689 99.1348 26.8379C98.2428 25.9069 97.7969 24.5658 97.7969 22.8145ZM99.6035 22.8145C99.6035 24.1426 99.8932 25.1387 100.473 25.8027C101.052 26.4603 101.781 26.7891 102.66 26.7891C103.533 26.7891 104.258 26.457 104.838 25.793C105.417 25.1289 105.707 24.1165 105.707 22.7559C105.707 21.4733 105.414 20.5033 104.828 19.8457C104.249 19.1816 103.526 18.8496 102.66 18.8496C101.781 18.8496 101.052 19.1784 100.473 19.8359C99.8932 20.4935 99.6035 21.4863 99.6035 22.8145ZM109.262 28.8594L110.971 29.1133C111.042 29.6406 111.241 30.0247 111.566 30.2656C112.003 30.5911 112.598 30.7539 113.354 30.7539C114.167 30.7539 114.796 30.5911 115.238 30.2656C115.681 29.9401 115.98 29.4844 116.137 28.8984C116.228 28.5404 116.27 27.7884 116.264 26.6426C115.495 27.5475 114.538 28 113.393 28C111.967 28 110.863 27.4857 110.082 26.457C109.301 25.4284 108.91 24.1947 108.91 22.7559C108.91 21.7663 109.089 20.8548 109.447 20.0215C109.805 19.1816 110.323 18.5339 111 18.0781C111.684 17.6224 112.484 17.3945 113.402 17.3945C114.626 17.3945 115.635 17.8893 116.43 18.8789V17.6289H118.051V26.5938C118.051 28.2083 117.885 29.3509 117.553 30.0215C117.227 30.6986 116.706 31.2324 115.99 31.623C115.281 32.0137 114.405 32.209 113.363 32.209C112.126 32.209 111.127 31.929 110.365 31.3691C109.604 30.8158 109.236 29.9792 109.262 28.8594ZM110.717 22.6289C110.717 23.9896 110.987 24.9824 111.527 25.6074C112.068 26.2324 112.745 26.5449 113.559 26.5449C114.366 26.5449 115.043 26.2357 115.59 25.6172C116.137 24.9922 116.41 24.0156 116.41 22.6875C116.41 21.418 116.127 20.4609 115.561 19.8164C115.001 19.1719 114.324 18.8496 113.529 18.8496C112.748 18.8496 112.084 19.1686 111.537 19.8066C110.99 20.4382 110.717 21.3789 110.717 22.6289ZM126.83 28V13.6836H128.725V28H126.83ZM131.85 28V17.6289H133.432V19.1035C134.193 17.9642 135.294 17.3945 136.732 17.3945C137.357 17.3945 137.93 17.5085 138.451 17.7363C138.979 17.9577 139.372 18.2507 139.633 18.6152C139.893 18.9798 140.076 19.4128 140.18 19.9141C140.245 20.2396 140.277 20.8092 140.277 21.623V28H138.52V21.6914C138.52 20.9753 138.451 20.4414 138.314 20.0898C138.178 19.7318 137.934 19.4486 137.582 19.2402C137.237 19.0254 136.83 18.918 136.361 18.918C135.613 18.918 134.965 19.1556 134.418 19.6309C133.878 20.1061 133.607 21.0078 133.607 22.3359V28H131.85ZM142.279 24.9043L144.018 24.6309C144.115 25.3275 144.385 25.8613 144.828 26.2324C145.277 26.6035 145.902 26.7891 146.703 26.7891C147.51 26.7891 148.109 26.6263 148.5 26.3008C148.891 25.9688 149.086 25.5814 149.086 25.1387C149.086 24.7415 148.913 24.429 148.568 24.2012C148.327 24.0449 147.729 23.8464 146.771 23.6055C145.482 23.2799 144.587 23 144.086 22.7656C143.591 22.5247 143.214 22.196 142.953 21.7793C142.699 21.3561 142.572 20.8906 142.572 20.3828C142.572 19.9206 142.676 19.4941 142.885 19.1035C143.1 18.7064 143.389 18.3776 143.754 18.1172C144.027 17.9154 144.398 17.7461 144.867 17.6094C145.342 17.4661 145.85 17.3945 146.391 17.3945C147.204 17.3945 147.917 17.5117 148.529 17.7461C149.148 17.9805 149.604 18.2995 149.896 18.7031C150.189 19.1003 150.391 19.6341 150.502 20.3047L148.783 20.5391C148.705 20.0052 148.477 19.5885 148.1 19.2891C147.729 18.9896 147.201 18.8398 146.518 18.8398C145.71 18.8398 145.134 18.9733 144.789 19.2402C144.444 19.5072 144.271 19.8197 144.271 20.1777C144.271 20.4056 144.343 20.6107 144.486 20.793C144.63 20.9818 144.854 21.138 145.16 21.2617C145.336 21.3268 145.854 21.4766 146.713 21.7109C147.956 22.043 148.822 22.3164 149.311 22.5312C149.805 22.7396 150.193 23.0456 150.473 23.4492C150.753 23.8529 150.893 24.3542 150.893 24.9531C150.893 25.5391 150.72 26.0924 150.375 26.6133C150.036 27.1276 149.545 27.528 148.9 27.8145C148.256 28.0944 147.527 28.2344 146.713 28.2344C145.365 28.2344 144.337 27.9544 143.627 27.3945C142.924 26.8346 142.475 26.0046 142.279 24.9043Z" fill="#36556B"/>
</g>
<defs>
<filter id="filter0_i_962_1809" x="-4" y="0" width="197" height="47" filterUnits="userSpaceOnUse" color-interpolation-filters="sRGB">
<feFlood flood-opacity="0" result="BackgroundImageFix"/>
<feBlend mode="normal" in="SourceGraphic" in2="BackgroundImageFix" result="shape"/>
<feColorMatrix in="SourceAlpha" type="matrix" values="0 0 0 0 0 0 0 0 0 0 0 0 0 0 0 0 0 0 127 0" result="hardAlpha"/>
<feOffset dx="-4" dy="3"/>
<feGaussianBlur stdDeviation="5"/>
<feComposite in2="hardAlpha" operator="arithmetic" k2="-1" k3="1"/>
<feColorMatrix type="matrix" values="0 0 0 0 0.588385 0 0 0 0 0.588385 0 0 0 0 0.588385 0 0 0 0.08 0"/>
<feBlend mode="normal" in2="shape" result="effect1_innerShadow_962_1809"/>
</filter>
</defs>
</svg>
