<svg width="263" height="44" viewBox="0 0 263 44" fill="none" xmlns="http://www.w3.org/2000/svg">
<g filter="url(#filter0_i_962_1792)">
<path d="M0 0H263V0C256.425 2.68284 251.62 8.46603 250.187 15.421L245.996 35.7597C245.007 40.5575 240.783 44 235.884 44H28.7685C22.9462 44 17.964 39.8207 16.9514 34.0872L13.8547 16.5551C12.5139 8.96337 7.23666 2.65763 0 0V0Z" fill="#F6F6F6"/>
<path d="M88.4844 28V13.6836H91.3359L94.7246 23.8203C95.0371 24.7643 95.265 25.4707 95.4082 25.9395C95.571 25.4186 95.8249 24.6536 96.1699 23.6445L99.5977 13.6836H102.146V28H100.32V16.0176L96.1602 28H94.4512L90.3105 15.8125V28H88.4844ZM111.746 26.7207C111.095 27.2741 110.467 27.6647 109.861 27.8926C109.262 28.1204 108.618 28.2344 107.928 28.2344C106.788 28.2344 105.913 27.9577 105.301 27.4043C104.689 26.8444 104.383 26.1315 104.383 25.2656C104.383 24.7578 104.497 24.2956 104.725 23.8789C104.959 23.4557 105.262 23.1172 105.633 22.8633C106.01 22.6094 106.434 22.4173 106.902 22.2871C107.247 22.196 107.768 22.1081 108.465 22.0234C109.884 21.8542 110.929 21.6523 111.6 21.418C111.606 21.1771 111.609 21.0241 111.609 20.959C111.609 20.2428 111.443 19.7383 111.111 19.4453C110.662 19.0482 109.995 18.8496 109.109 18.8496C108.283 18.8496 107.671 18.9961 107.273 19.2891C106.883 19.5755 106.593 20.0866 106.404 20.8223L104.686 20.5879C104.842 19.8522 105.099 19.2598 105.457 18.8105C105.815 18.3548 106.333 18.0065 107.01 17.7656C107.687 17.5182 108.471 17.3945 109.363 17.3945C110.249 17.3945 110.968 17.4987 111.521 17.707C112.075 17.9154 112.482 18.179 112.742 18.498C113.003 18.8105 113.185 19.2077 113.289 19.6895C113.348 19.9889 113.377 20.5293 113.377 21.3105V23.6543C113.377 25.2884 113.413 26.3236 113.484 26.7598C113.562 27.1895 113.712 27.6029 113.934 28H112.098C111.915 27.6354 111.798 27.209 111.746 26.7207ZM111.6 22.7949C110.962 23.0553 110.005 23.2767 108.729 23.459C108.006 23.5632 107.495 23.6803 107.195 23.8105C106.896 23.9408 106.665 24.1328 106.502 24.3867C106.339 24.6341 106.258 24.9108 106.258 25.2168C106.258 25.6855 106.434 26.0762 106.785 26.3887C107.143 26.7012 107.664 26.8574 108.348 26.8574C109.025 26.8574 109.627 26.7109 110.154 26.418C110.682 26.1185 111.069 25.7116 111.316 25.1973C111.505 24.8001 111.6 24.2142 111.6 23.4395V22.7949ZM116.111 28V17.6289H117.693V19.1035C118.455 17.9642 119.555 17.3945 120.994 17.3945C121.619 17.3945 122.192 17.5085 122.713 17.7363C123.24 17.9577 123.634 18.2507 123.895 18.6152C124.155 18.9798 124.337 19.4128 124.441 19.9141C124.507 20.2396 124.539 20.8092 124.539 21.623V28H122.781V21.6914C122.781 20.9753 122.713 20.4414 122.576 20.0898C122.439 19.7318 122.195 19.4486 121.844 19.2402C121.499 19.0254 121.092 18.918 120.623 18.918C119.874 18.918 119.227 19.1556 118.68 19.6309C118.139 20.1061 117.869 21.0078 117.869 22.3359V28H116.111ZM134.012 26.7207C133.361 27.2741 132.732 27.6647 132.127 27.8926C131.528 28.1204 130.883 28.2344 130.193 28.2344C129.054 28.2344 128.178 27.9577 127.566 27.4043C126.954 26.8444 126.648 26.1315 126.648 25.2656C126.648 24.7578 126.762 24.2956 126.99 23.8789C127.225 23.4557 127.527 23.1172 127.898 22.8633C128.276 22.6094 128.699 22.4173 129.168 22.2871C129.513 22.196 130.034 22.1081 130.73 22.0234C132.15 21.8542 133.195 21.6523 133.865 21.418C133.872 21.1771 133.875 21.0241 133.875 20.959C133.875 20.2428 133.709 19.7383 133.377 19.4453C132.928 19.0482 132.26 18.8496 131.375 18.8496C130.548 18.8496 129.936 18.9961 129.539 19.2891C129.148 19.5755 128.859 20.0866 128.67 20.8223L126.951 20.5879C127.107 19.8522 127.365 19.2598 127.723 18.8105C128.081 18.3548 128.598 18.0065 129.275 17.7656C129.952 17.5182 130.737 17.3945 131.629 17.3945C132.514 17.3945 133.234 17.4987 133.787 17.707C134.34 17.9154 134.747 18.179 135.008 18.498C135.268 18.8105 135.451 19.2077 135.555 19.6895C135.613 19.9889 135.643 20.5293 135.643 21.3105V23.6543C135.643 25.2884 135.678 26.3236 135.75 26.7598C135.828 27.1895 135.978 27.6029 136.199 28H134.363C134.181 27.6354 134.064 27.209 134.012 26.7207ZM133.865 22.7949C133.227 23.0553 132.27 23.2767 130.994 23.459C130.271 23.5632 129.76 23.6803 129.461 23.8105C129.161 23.9408 128.93 24.1328 128.768 24.3867C128.605 24.6341 128.523 24.9108 128.523 25.2168C128.523 25.6855 128.699 26.0762 129.051 26.3887C129.409 26.7012 129.93 26.8574 130.613 26.8574C131.29 26.8574 131.893 26.7109 132.42 26.418C132.947 26.1185 133.335 25.7116 133.582 25.1973C133.771 24.8001 133.865 24.2142 133.865 23.4395V22.7949ZM138.055 28.8594L139.764 29.1133C139.835 29.6406 140.034 30.0247 140.359 30.2656C140.796 30.5911 141.391 30.7539 142.146 30.7539C142.96 30.7539 143.589 30.5911 144.031 30.2656C144.474 29.9401 144.773 29.4844 144.93 28.8984C145.021 28.5404 145.063 27.7884 145.057 26.6426C144.288 27.5475 143.331 28 142.186 28C140.76 28 139.656 27.4857 138.875 26.457C138.094 25.4284 137.703 24.1947 137.703 22.7559C137.703 21.7663 137.882 20.8548 138.24 20.0215C138.598 19.1816 139.116 18.5339 139.793 18.0781C140.477 17.6224 141.277 17.3945 142.195 17.3945C143.419 17.3945 144.428 17.8893 145.223 18.8789V17.6289H146.844V26.5938C146.844 28.2083 146.678 29.3509 146.346 30.0215C146.02 30.6986 145.499 31.2324 144.783 31.623C144.074 32.0137 143.198 32.209 142.156 32.209C140.919 32.209 139.92 31.929 139.158 31.3691C138.396 30.8158 138.029 29.9792 138.055 28.8594ZM139.51 22.6289C139.51 23.9896 139.78 24.9824 140.32 25.6074C140.861 26.2324 141.538 26.5449 142.352 26.5449C143.159 26.5449 143.836 26.2357 144.383 25.6172C144.93 24.9922 145.203 24.0156 145.203 22.6875C145.203 21.418 144.92 20.4609 144.354 19.8164C143.794 19.1719 143.117 18.8496 142.322 18.8496C141.541 18.8496 140.877 19.1686 140.33 19.8066C139.783 20.4382 139.51 21.3789 139.51 22.6289ZM156.609 24.6602L158.426 24.8848C158.139 25.946 157.609 26.7695 156.834 27.3555C156.059 27.9414 155.07 28.2344 153.865 28.2344C152.348 28.2344 151.144 27.7689 150.252 26.8379C149.367 25.9004 148.924 24.5885 148.924 22.9023C148.924 21.1576 149.373 19.8034 150.271 18.8398C151.17 17.8763 152.335 17.3945 153.768 17.3945C155.154 17.3945 156.287 17.8665 157.166 18.8105C158.045 19.7546 158.484 21.0827 158.484 22.7949C158.484 22.8991 158.481 23.0553 158.475 23.2637H150.74C150.805 24.403 151.128 25.2754 151.707 25.8809C152.286 26.4863 153.009 26.7891 153.875 26.7891C154.52 26.7891 155.07 26.6198 155.525 26.2812C155.981 25.9427 156.342 25.4023 156.609 24.6602ZM150.838 21.8184H156.629C156.551 20.946 156.329 20.2917 155.965 19.8555C155.405 19.1784 154.679 18.8398 153.787 18.8398C152.98 18.8398 152.299 19.11 151.746 19.6504C151.199 20.1908 150.896 20.9134 150.838 21.8184ZM175.828 13.6836H177.723V21.9551C177.723 23.3939 177.56 24.5365 177.234 25.3828C176.909 26.2292 176.32 26.9193 175.467 27.4531C174.62 27.9805 173.507 28.2441 172.127 28.2441C170.786 28.2441 169.689 28.013 168.836 27.5508C167.983 27.0885 167.374 26.4212 167.01 25.5488C166.645 24.6699 166.463 23.472 166.463 21.9551V13.6836H168.357V21.9453C168.357 23.1888 168.471 24.1068 168.699 24.6992C168.934 25.2852 169.331 25.7376 169.891 26.0566C170.457 26.3757 171.147 26.5352 171.961 26.5352C173.354 26.5352 174.347 26.2194 174.939 25.5879C175.532 24.9564 175.828 23.7422 175.828 21.9453V13.6836ZM179.959 24.9043L181.697 24.6309C181.795 25.3275 182.065 25.8613 182.508 26.2324C182.957 26.6035 183.582 26.7891 184.383 26.7891C185.19 26.7891 185.789 26.6263 186.18 26.3008C186.57 25.9688 186.766 25.5814 186.766 25.1387C186.766 24.7415 186.593 24.429 186.248 24.2012C186.007 24.0449 185.408 23.8464 184.451 23.6055C183.162 23.2799 182.267 23 181.766 22.7656C181.271 22.5247 180.893 22.196 180.633 21.7793C180.379 21.3561 180.252 20.8906 180.252 20.3828C180.252 19.9206 180.356 19.4941 180.564 19.1035C180.779 18.7064 181.069 18.3776 181.434 18.1172C181.707 17.9154 182.078 17.7461 182.547 17.6094C183.022 17.4661 183.53 17.3945 184.07 17.3945C184.884 17.3945 185.597 17.5117 186.209 17.7461C186.827 17.9805 187.283 18.2995 187.576 18.7031C187.869 19.1003 188.071 19.6341 188.182 20.3047L186.463 20.5391C186.385 20.0052 186.157 19.5885 185.779 19.2891C185.408 18.9896 184.881 18.8398 184.197 18.8398C183.39 18.8398 182.814 18.9733 182.469 19.2402C182.124 19.5072 181.951 19.8197 181.951 20.1777C181.951 20.4056 182.023 20.6107 182.166 20.793C182.309 20.9818 182.534 21.138 182.84 21.2617C183.016 21.3268 183.533 21.4766 184.393 21.7109C185.636 22.043 186.502 22.3164 186.99 22.5312C187.485 22.7396 187.872 23.0456 188.152 23.4492C188.432 23.8529 188.572 24.3542 188.572 24.9531C188.572 25.5391 188.4 26.0924 188.055 26.6133C187.716 27.1276 187.225 27.528 186.58 27.8145C185.936 28.0944 185.206 28.2344 184.393 28.2344C183.045 28.2344 182.016 27.9544 181.307 27.3945C180.604 26.8346 180.154 26.0046 179.959 24.9043ZM197.762 24.6602L199.578 24.8848C199.292 25.946 198.761 26.7695 197.986 27.3555C197.212 27.9414 196.222 28.2344 195.018 28.2344C193.501 28.2344 192.296 27.7689 191.404 26.8379C190.519 25.9004 190.076 24.5885 190.076 22.9023C190.076 21.1576 190.525 19.8034 191.424 18.8398C192.322 17.8763 193.488 17.3945 194.92 17.3945C196.307 17.3945 197.439 17.8665 198.318 18.8105C199.197 19.7546 199.637 21.0827 199.637 22.7949C199.637 22.8991 199.633 23.0553 199.627 23.2637H191.893C191.958 24.403 192.28 25.2754 192.859 25.8809C193.439 26.4863 194.161 26.7891 195.027 26.7891C195.672 26.7891 196.222 26.6198 196.678 26.2812C197.133 25.9427 197.495 25.4023 197.762 24.6602ZM191.99 21.8184H197.781C197.703 20.946 197.482 20.2917 197.117 19.8555C196.557 19.1784 195.831 18.8398 194.939 18.8398C194.132 18.8398 193.452 19.11 192.898 19.6504C192.352 20.1908 192.049 20.9134 191.99 21.8184ZM201.775 28V17.6289H203.357V19.2012C203.761 18.4655 204.132 17.9805 204.471 17.7461C204.816 17.5117 205.193 17.3945 205.604 17.3945C206.196 17.3945 206.798 17.5833 207.41 17.9609L206.805 19.5918C206.375 19.3379 205.945 19.2109 205.516 19.2109C205.132 19.2109 204.786 19.3281 204.48 19.5625C204.174 19.7904 203.956 20.1094 203.826 20.5195C203.631 21.1445 203.533 21.8281 203.533 22.5703V28H201.775ZM207.752 24.9043L209.49 24.6309C209.588 25.3275 209.858 25.8613 210.301 26.2324C210.75 26.6035 211.375 26.7891 212.176 26.7891C212.983 26.7891 213.582 26.6263 213.973 26.3008C214.363 25.9688 214.559 25.5814 214.559 25.1387C214.559 24.7415 214.386 24.429 214.041 24.2012C213.8 24.0449 213.201 23.8464 212.244 23.6055C210.955 23.2799 210.06 23 209.559 22.7656C209.064 22.5247 208.686 22.196 208.426 21.7793C208.172 21.3561 208.045 20.8906 208.045 20.3828C208.045 19.9206 208.149 19.4941 208.357 19.1035C208.572 18.7064 208.862 18.3776 209.227 18.1172C209.5 17.9154 209.871 17.7461 210.34 17.6094C210.815 17.4661 211.323 17.3945 211.863 17.3945C212.677 17.3945 213.39 17.5117 214.002 17.7461C214.62 17.9805 215.076 18.2995 215.369 18.7031C215.662 19.1003 215.864 19.6341 215.975 20.3047L214.256 20.5391C214.178 20.0052 213.95 19.5885 213.572 19.2891C213.201 18.9896 212.674 18.8398 211.99 18.8398C211.183 18.8398 210.607 18.9733 210.262 19.2402C209.917 19.5072 209.744 19.8197 209.744 20.1777C209.744 20.4056 209.816 20.6107 209.959 20.793C210.102 20.9818 210.327 21.138 210.633 21.2617C210.809 21.3268 211.326 21.4766 212.186 21.7109C213.429 22.043 214.295 22.3164 214.783 22.5312C215.278 22.7396 215.665 23.0456 215.945 23.4492C216.225 23.8529 216.365 24.3542 216.365 24.9531C216.365 25.5391 216.193 26.0924 215.848 26.6133C215.509 27.1276 215.018 27.528 214.373 27.8145C213.729 28.0944 212.999 28.2344 212.186 28.2344C210.838 28.2344 209.809 27.9544 209.1 27.3945C208.396 26.8346 207.947 26.0046 207.752 24.9043Z" fill="#36556B"/>
<path d="M68.1603 23.3374C68.9979 22.7798 69.6339 21.9674 69.9741 21.0203C70.3143 20.0732 70.3407 19.0418 70.0494 18.0786C69.7581 17.1154 69.1646 16.2715 68.3565 15.6717C67.5485 15.0719 66.5689 14.748 65.5626 14.748C64.5563 14.748 63.5767 15.0719 62.7687 15.6717C61.9606 16.2715 61.3671 17.1154 61.0758 18.0786C60.7845 19.0418 60.8109 20.0732 61.1511 21.0203C61.4913 21.9674 62.1273 22.7798 62.9649 23.3374C61.4497 23.8959 60.1557 24.9293 59.2759 26.2835C59.2296 26.3523 59.1975 26.4295 59.1814 26.5107C59.1653 26.592 59.1654 26.6756 59.1819 26.7568C59.1984 26.838 59.2309 26.915 59.2774 26.9836C59.3239 27.0521 59.3836 27.1107 59.453 27.1559C59.5224 27.2012 59.6 27.2322 59.6815 27.2472C59.763 27.2621 59.8466 27.2607 59.9275 27.2431C60.0085 27.2255 60.0851 27.1919 60.1529 27.1444C60.2208 27.0969 60.2785 27.0364 60.3228 26.9664C60.8902 26.0935 61.6668 25.3763 62.5818 24.8798C63.4969 24.3833 64.5215 24.1232 65.5626 24.1232C66.6037 24.1232 67.6283 24.3833 68.5434 24.8798C69.4584 25.3763 70.235 26.0935 70.8024 26.9664C70.8941 27.1026 71.0357 27.1973 71.1966 27.23C71.3576 27.2626 71.5249 27.2307 71.6624 27.1409C71.8 27.0512 71.8967 26.911 71.9317 26.7506C71.9666 26.5901 71.9371 26.4224 71.8493 26.2835C70.9695 24.9293 69.6755 23.8959 68.1603 23.3374ZM62.1251 19.4374C62.1251 18.7576 62.3267 18.093 62.7044 17.5277C63.0821 16.9624 63.619 16.5218 64.2471 16.2616C64.8752 16.0014 65.5664 15.9334 66.2332 16.066C66.9 16.1986 67.5125 16.526 67.9933 17.0068C68.474 17.4875 68.8014 18.1 68.934 18.7668C69.0667 19.4336 68.9986 20.1248 68.7384 20.7529C68.4783 21.381 68.0377 21.9179 67.4724 22.2956C66.9071 22.6733 66.2425 22.8749 65.5626 22.8749C64.6512 22.8739 63.7775 22.5114 63.1331 21.867C62.4886 21.2226 62.1261 20.3488 62.1251 19.4374ZM78.5423 27.1484C78.4035 27.2389 78.2344 27.2706 78.0722 27.2365C77.91 27.2023 77.768 27.1052 77.6774 26.9664C77.1106 26.093 76.3342 25.3755 75.4189 24.8791C74.5037 24.3828 73.4788 24.1236 72.4376 24.1249C72.2718 24.1249 72.1129 24.0591 71.9957 23.9419C71.8784 23.8247 71.8126 23.6657 71.8126 23.4999C71.8126 23.3342 71.8784 23.1752 71.9957 23.058C72.1129 22.9408 72.2718 22.8749 72.4376 22.8749C72.9438 22.8745 73.4437 22.7622 73.9015 22.5461C74.3593 22.3301 74.7637 22.0156 75.0859 21.6251C75.4081 21.2346 75.64 20.7778 75.7652 20.2873C75.8903 19.7968 75.9056 19.2847 75.8099 18.7876C75.7142 18.2905 75.5098 17.8206 75.2115 17.4117C74.9132 17.0027 74.5282 16.6646 74.0841 16.4217C73.64 16.1787 73.1477 16.0369 72.6424 16.0063C72.1371 15.9756 71.6313 16.057 71.161 16.2445C71.0844 16.2776 71.0018 16.2951 70.9183 16.2958C70.8348 16.2965 70.752 16.2804 70.6748 16.2486C70.5975 16.2167 70.5275 16.1698 70.4688 16.1104C70.41 16.051 70.3638 15.9805 70.3327 15.9029C70.3017 15.8254 70.2866 15.7424 70.2881 15.6589C70.2897 15.5754 70.3081 15.493 70.342 15.4167C70.376 15.3404 70.4249 15.2717 70.4858 15.2146C70.5468 15.1575 70.6186 15.1132 70.697 15.0843C71.7731 14.6551 72.9701 14.6397 74.0569 15.041C75.1438 15.4422 76.0435 16.2318 76.5826 17.2573C77.1217 18.2828 77.2619 19.4716 76.9761 20.5944C76.6904 21.7172 75.999 22.6944 75.0353 23.3374C76.5505 23.8959 77.8445 24.9293 78.7243 26.2835C78.8148 26.4224 78.8465 26.5915 78.8124 26.7537C78.7783 26.9158 78.6811 27.0578 78.5423 27.1484Z" fill="#36556B"/>
</g>
<defs>
<filter id="filter0_i_962_1792" x="-4" y="0" width="267" height="47" filterUnits="userSpaceOnUse" color-interpolation-filters="sRGB">
<feFlood flood-opacity="0" result="BackgroundImageFix"/>
<feBlend mode="normal" in="SourceGraphic" in2="BackgroundImageFix" result="shape"/>
<feColorMatrix in="SourceAlpha" type="matrix" values="0 0 0 0 0 0 0 0 0 0 0 0 0 0 0 0 0 0 127 0" result="hardAlpha"/>
<feOffset dx="-4" dy="3"/>
<feGaussianBlur stdDeviation="5"/>
<feComposite in2="hardAlpha" operator="arithmetic" k2="-1" k3="1"/>
<feColorMatrix type="matrix" values="0 0 0 0 0.588385 0 0 0 0 0.588385 0 0 0 0 0.588385 0 0 0 0.08 0"/>
<feBlend mode="normal" in2="shape" result="effect1_innerShadow_962_1792"/>
</filter>
</defs>
</svg>
