<svg width="750" height="44" viewBox="0 0 750 44" fill="none" xmlns="http://www.w3.org/2000/svg">
<g filter="url(#filter0_i_484_1144)">
<path d="M487 0H750C743.425 2.68284 738.62 8.46603 737.187 15.421L732.996 35.7597C732.007 40.5575 727.783 44 722.884 44H515.768C509.946 44 504.964 39.8207 503.951 34.0872L500.855 16.5551C499.514 8.96337 494.237 2.65763 487 0Z" fill="#F6F6F6"/>
<path d="M565.641 28V13.6836H575.299V15.373H567.535V19.8066H574.254V21.4961H567.535V28H565.641ZM577.555 15.7051V13.6836H579.312V15.7051H577.555ZM577.555 28V17.6289H579.312V28H577.555ZM581.959 28V13.6836H583.717V28H581.959ZM593.551 24.6602L595.367 24.8848C595.081 25.946 594.55 26.7695 593.775 27.3555C593.001 27.9414 592.011 28.2344 590.807 28.2344C589.29 28.2344 588.085 27.7689 587.193 26.8379C586.308 25.9004 585.865 24.5885 585.865 22.9023C585.865 21.1576 586.314 19.8034 587.213 18.8398C588.111 17.8763 589.277 17.3945 590.709 17.3945C592.096 17.3945 593.229 17.8665 594.107 18.8105C594.986 19.7546 595.426 21.0827 595.426 22.7949C595.426 22.8991 595.423 23.0553 595.416 23.2637H587.682C587.747 24.403 588.069 25.2754 588.648 25.8809C589.228 26.4863 589.951 26.7891 590.816 26.7891C591.461 26.7891 592.011 26.6198 592.467 26.2812C592.923 25.9427 593.284 25.4023 593.551 24.6602ZM587.779 21.8184H593.57C593.492 20.946 593.271 20.2917 592.906 19.8555C592.346 19.1784 591.62 18.8398 590.729 18.8398C589.921 18.8398 589.241 19.11 588.688 19.6504C588.141 20.1908 587.838 20.9134 587.779 21.8184ZM603.375 28V13.6836H608.307C609.42 13.6836 610.27 13.752 610.855 13.8887C611.676 14.0775 612.376 14.4193 612.955 14.9141C613.71 15.5521 614.273 16.3691 614.645 17.3652C615.022 18.3548 615.211 19.4876 615.211 20.7637C615.211 21.8509 615.084 22.8145 614.83 23.6543C614.576 24.4941 614.251 25.1908 613.854 25.7441C613.456 26.291 613.02 26.724 612.545 27.043C612.076 27.3555 611.507 27.5931 610.836 27.7559C610.172 27.9186 609.407 28 608.541 28H603.375ZM605.27 26.3105H608.326C609.27 26.3105 610.009 26.2227 610.543 26.0469C611.083 25.8711 611.513 25.6237 611.832 25.3047C612.281 24.8555 612.63 24.2533 612.877 23.498C613.131 22.7363 613.258 21.8151 613.258 20.7344C613.258 19.237 613.01 18.0879 612.516 17.2871C612.027 16.4798 611.432 15.9395 610.729 15.666C610.221 15.4707 609.404 15.373 608.277 15.373H605.27V26.3105ZM617.613 15.7051V13.6836H619.371V15.7051H617.613ZM617.613 28V17.6289H619.371V28H617.613ZM628.824 24.2012L630.553 24.4258C630.364 25.6172 629.879 26.5514 629.098 27.2285C628.323 27.8991 627.369 28.2344 626.236 28.2344C624.817 28.2344 623.674 27.7721 622.809 26.8477C621.949 25.9167 621.52 24.5853 621.52 22.8535C621.52 21.7337 621.705 20.7539 622.076 19.9141C622.447 19.0742 623.01 18.446 623.766 18.0293C624.527 17.6061 625.354 17.3945 626.246 17.3945C627.372 17.3945 628.294 17.681 629.01 18.2539C629.726 18.8203 630.185 19.6276 630.387 20.6758L628.678 20.9395C628.515 20.2428 628.225 19.7188 627.809 19.3672C627.398 19.0156 626.9 18.8398 626.314 18.8398C625.429 18.8398 624.71 19.1589 624.156 19.7969C623.603 20.4284 623.326 21.431 623.326 22.8047C623.326 24.1979 623.593 25.2103 624.127 25.8418C624.661 26.4733 625.357 26.7891 626.217 26.7891C626.907 26.7891 627.483 26.5775 627.945 26.1543C628.408 25.7311 628.701 25.0801 628.824 24.2012ZM635.895 26.4277L636.148 27.9805C635.654 28.0846 635.211 28.1367 634.82 28.1367C634.182 28.1367 633.688 28.0358 633.336 27.834C632.984 27.6322 632.737 27.3685 632.594 27.043C632.451 26.7109 632.379 26.0176 632.379 24.9629V18.9961H631.09V17.6289H632.379V15.0605L634.127 14.0059V17.6289H635.895V18.9961H634.127V25.0605C634.127 25.5618 634.156 25.8841 634.215 26.0273C634.28 26.1706 634.381 26.2845 634.518 26.3691C634.661 26.4538 634.863 26.4961 635.123 26.4961C635.318 26.4961 635.576 26.4733 635.895 26.4277ZM637.633 15.7051V13.6836H639.391V15.7051H637.633ZM637.633 28V17.6289H639.391V28H637.633ZM641.422 22.8145C641.422 20.8939 641.956 19.4714 643.023 18.5469C643.915 17.7786 645.003 17.3945 646.285 17.3945C647.711 17.3945 648.876 17.8633 649.781 18.8008C650.686 19.7318 651.139 21.0208 651.139 22.668C651.139 24.0026 650.937 25.054 650.533 25.8223C650.136 26.584 649.553 27.1764 648.785 27.5996C648.023 28.0228 647.19 28.2344 646.285 28.2344C644.833 28.2344 643.658 27.7689 642.76 26.8379C641.868 25.9069 641.422 24.5658 641.422 22.8145ZM643.229 22.8145C643.229 24.1426 643.518 25.1387 644.098 25.8027C644.677 26.4603 645.406 26.7891 646.285 26.7891C647.158 26.7891 647.883 26.457 648.463 25.793C649.042 25.1289 649.332 24.1165 649.332 22.7559C649.332 21.4733 649.039 20.5033 648.453 19.8457C647.874 19.1816 647.151 18.8496 646.285 18.8496C645.406 18.8496 644.677 19.1784 644.098 19.8359C643.518 20.4935 643.229 21.4863 643.229 22.8145ZM653.209 28V17.6289H654.791V19.1035C655.553 17.9642 656.653 17.3945 658.092 17.3945C658.717 17.3945 659.29 17.5085 659.811 17.7363C660.338 17.9577 660.732 18.2507 660.992 18.6152C661.253 18.9798 661.435 19.4128 661.539 19.9141C661.604 20.2396 661.637 20.8092 661.637 21.623V28H659.879V21.6914C659.879 20.9753 659.811 20.4414 659.674 20.0898C659.537 19.7318 659.293 19.4486 658.941 19.2402C658.596 19.0254 658.189 18.918 657.721 18.918C656.972 18.918 656.324 19.1556 655.777 19.6309C655.237 20.1061 654.967 21.0078 654.967 22.3359V28H653.209ZM671.109 26.7207C670.458 27.2741 669.83 27.6647 669.225 27.8926C668.626 28.1204 667.981 28.2344 667.291 28.2344C666.152 28.2344 665.276 27.9577 664.664 27.4043C664.052 26.8444 663.746 26.1315 663.746 25.2656C663.746 24.7578 663.86 24.2956 664.088 23.8789C664.322 23.4557 664.625 23.1172 664.996 22.8633C665.374 22.6094 665.797 22.4173 666.266 22.2871C666.611 22.196 667.132 22.1081 667.828 22.0234C669.247 21.8542 670.292 21.6523 670.963 21.418C670.969 21.1771 670.973 21.0241 670.973 20.959C670.973 20.2428 670.807 19.7383 670.475 19.4453C670.025 19.0482 669.358 18.8496 668.473 18.8496C667.646 18.8496 667.034 18.9961 666.637 19.2891C666.246 19.5755 665.956 20.0866 665.768 20.8223L664.049 20.5879C664.205 19.8522 664.462 19.2598 664.82 18.8105C665.178 18.3548 665.696 18.0065 666.373 17.7656C667.05 17.5182 667.835 17.3945 668.727 17.3945C669.612 17.3945 670.331 17.4987 670.885 17.707C671.438 17.9154 671.845 18.179 672.105 18.498C672.366 18.8105 672.548 19.2077 672.652 19.6895C672.711 19.9889 672.74 20.5293 672.74 21.3105V23.6543C672.74 25.2884 672.776 26.3236 672.848 26.7598C672.926 27.1895 673.076 27.6029 673.297 28H671.461C671.279 27.6354 671.161 27.209 671.109 26.7207ZM670.963 22.7949C670.325 23.0553 669.368 23.2767 668.092 23.459C667.369 23.5632 666.858 23.6803 666.559 23.8105C666.259 23.9408 666.028 24.1328 665.865 24.3867C665.702 24.6341 665.621 24.9108 665.621 25.2168C665.621 25.6855 665.797 26.0762 666.148 26.3887C666.507 26.7012 667.027 26.8574 667.711 26.8574C668.388 26.8574 668.99 26.7109 669.518 26.418C670.045 26.1185 670.432 25.7116 670.68 25.1973C670.868 24.8001 670.963 24.2142 670.963 23.4395V22.7949ZM675.455 28V17.6289H677.037V19.2012C677.441 18.4655 677.812 17.9805 678.15 17.7461C678.495 17.5117 678.873 17.3945 679.283 17.3945C679.876 17.3945 680.478 17.5833 681.09 17.9609L680.484 19.5918C680.055 19.3379 679.625 19.2109 679.195 19.2109C678.811 19.2109 678.466 19.3281 678.16 19.5625C677.854 19.7904 677.636 20.1094 677.506 20.5195C677.311 21.1445 677.213 21.8281 677.213 22.5703V28H675.455ZM682.057 31.9941L681.861 30.3438C682.245 30.4479 682.581 30.5 682.867 30.5C683.258 30.5 683.57 30.4349 683.805 30.3047C684.039 30.1745 684.231 29.9922 684.381 29.7578C684.492 29.582 684.671 29.1458 684.918 28.4492C684.951 28.3516 685.003 28.2083 685.074 28.0195L681.139 17.6289H683.033L685.191 23.6348C685.471 24.3965 685.722 25.1973 685.943 26.0371C686.145 25.2298 686.386 24.4421 686.666 23.6738L688.883 17.6289H690.641L686.695 28.1758C686.272 29.3151 685.943 30.0996 685.709 30.5293C685.396 31.1087 685.038 31.5319 684.635 31.7988C684.231 32.0723 683.749 32.209 683.189 32.209C682.851 32.209 682.473 32.1374 682.057 31.9941Z" fill="#36556B"/>
<path d="M543.5 21.8334H548.5M543.5 25.1667H546M539.333 14.3334V27.6667C539.333 28.1088 539.509 28.5327 539.821 28.8453C540.134 29.1578 540.558 29.3334 541 29.3334H551C551.442 29.3334 551.866 29.1578 552.178 28.8453C552.491 28.5327 552.667 28.1088 552.667 27.6667V17.9517C552.667 17.7297 552.622 17.5099 552.536 17.3053C552.45 17.1006 552.324 16.9153 552.165 16.7601L548.465 13.1417C548.154 12.8373 547.735 12.6668 547.3 12.6667H541C540.558 12.6667 540.134 12.8423 539.821 13.1549C539.509 13.4675 539.333 13.8914 539.333 14.3334Z" stroke="#36556B" stroke-linecap="round" stroke-linejoin="round"/>
<path d="M547.667 12.6667V16.0001C547.667 16.4421 547.842 16.866 548.155 17.1786C548.467 17.4912 548.891 17.6667 549.333 17.6667H552.667" stroke="#36556B" stroke-linejoin="round"/>
<path d="M710.333 19.9999H711.667V18.6666H710.333M711 27.3333C708.06 27.3333 705.667 24.9399 705.667 21.9999C705.667 19.0599 708.06 16.6666 711 16.6666C713.94 16.6666 716.333 19.0599 716.333 21.9999C716.333 24.9399 713.94 27.3333 711 27.3333ZM711 15.3333C710.124 15.3333 709.258 15.5057 708.449 15.8407C707.64 16.1758 706.905 16.6668 706.286 17.2859C705.036 18.5361 704.333 20.2318 704.333 21.9999C704.333 23.768 705.036 25.4637 706.286 26.714C706.905 27.333 707.64 27.8241 708.449 28.1591C709.258 28.4941 710.124 28.6666 711 28.6666C712.768 28.6666 714.464 27.9642 715.714 26.714C716.964 25.4637 717.667 23.768 717.667 21.9999C717.667 21.1244 717.494 20.2575 717.159 19.4487C716.824 18.6399 716.333 17.9049 715.714 17.2859C715.095 16.6668 714.36 16.1758 713.551 15.8407C712.742 15.5057 711.875 15.3333 711 15.3333ZM710.333 25.3333H711.667V21.3333H710.333V25.3333Z" fill="#B5B5B5"/>
</g>
<g filter="url(#filter1_i_484_1144)">
<path d="M344 0H537C532.131 2.70727 528.792 7.51836 527.959 13.0266L524.662 34.8329C523.865 40.1035 519.335 44 514.004 44H368.269C362.238 44 357.144 39.5236 356.369 33.5425L353.811 13.8051C353.04 7.85813 349.363 2.68369 344 0Z" fill="#F6F6F6"/>
<path d="M504.333 19.9999H505.667V18.6666H504.333M505 27.3333C502.06 27.3333 499.667 24.9399 499.667 21.9999C499.667 19.0599 502.06 16.6666 505 16.6666C507.94 16.6666 510.333 19.0599 510.333 21.9999C510.333 24.9399 507.94 27.3333 505 27.3333ZM505 15.3333C504.124 15.3333 503.258 15.5057 502.449 15.8407C501.64 16.1758 500.905 16.6668 500.286 17.2859C499.036 18.5361 498.333 20.2318 498.333 21.9999C498.333 23.768 499.036 25.4637 500.286 26.714C500.905 27.333 501.64 27.8241 502.449 28.1591C503.258 28.4941 504.124 28.6666 505 28.6666C506.768 28.6666 508.464 27.9642 509.714 26.714C510.964 25.4637 511.667 23.768 511.667 21.9999C511.667 21.1244 511.494 20.2575 511.159 19.4487C510.824 18.6399 510.333 17.9049 509.714 17.2859C509.095 16.6668 508.36 16.1758 507.551 15.8407C506.742 15.5057 505.875 15.3333 505 15.3333ZM504.333 25.3333H505.667V21.3333H504.333V25.3333Z" fill="#B5B5B5"/>
<path d="M401.189 12.6016C398.211 12.5938 395.59 14.1348 394.092 16.4629C394.025 16.5664 394.1 16.7032 394.223 16.7032H395.596C395.689 16.7032 395.777 16.6621 395.836 16.5899C395.973 16.4239 396.119 16.2637 396.273 16.1114C396.91 15.4766 397.65 14.9766 398.475 14.6289C399.326 14.2696 400.232 14.086 401.168 14.086C402.103 14.086 403.01 14.2676 403.861 14.6289C404.686 14.9766 405.426 15.4766 406.062 16.1114C406.699 16.7461 407.197 17.4864 407.547 18.3086C407.908 19.1602 408.09 20.0645 408.09 21C408.09 21.9356 407.906 22.8399 407.547 23.6914C407.199 24.5137 406.699 25.2539 406.062 25.8887C405.426 26.5235 404.686 27.0235 403.861 27.3711C403.009 27.7311 402.093 27.9157 401.168 27.9141C400.232 27.9141 399.326 27.7305 398.475 27.3711C397.652 27.0238 396.904 26.5204 396.273 25.8887C396.119 25.7344 395.975 25.5742 395.836 25.4102C395.777 25.3379 395.687 25.2969 395.596 25.2969H394.223C394.1 25.2969 394.023 25.4336 394.092 25.5371C395.588 27.8594 398.197 29.3985 401.168 29.3985C405.781 29.3985 409.527 25.6856 409.574 21.086C409.621 16.4121 405.869 12.6133 401.189 12.6016ZM398.715 23.1875V21.7032H392.582C392.496 21.7032 392.426 21.6328 392.426 21.5469V20.4532C392.426 20.3672 392.496 20.2969 392.582 20.2969H398.715V18.8125C398.715 18.6817 398.868 18.6075 398.969 18.6895L401.741 20.877C401.759 20.8916 401.774 20.9103 401.785 20.9316C401.795 20.9529 401.801 20.9763 401.801 21C401.801 21.0237 401.795 21.0471 401.785 21.0685C401.774 21.0898 401.759 21.1085 401.741 21.1231L398.969 23.3106C398.868 23.3907 398.715 23.3184 398.715 23.1875Z" fill="#36556B"/>
<path d="M420.465 28V13.6836H422.359V26.3105H429.41V28H420.465ZM430.797 22.8145C430.797 20.8939 431.331 19.4714 432.398 18.5469C433.29 17.7786 434.378 17.3945 435.66 17.3945C437.086 17.3945 438.251 17.8633 439.156 18.8008C440.061 19.7318 440.514 21.0208 440.514 22.668C440.514 24.0026 440.312 25.054 439.908 25.8223C439.511 26.584 438.928 27.1764 438.16 27.5996C437.398 28.0228 436.565 28.2344 435.66 28.2344C434.208 28.2344 433.033 27.7689 432.135 26.8379C431.243 25.9069 430.797 24.5658 430.797 22.8145ZM432.604 22.8145C432.604 24.1426 432.893 25.1387 433.473 25.8027C434.052 26.4603 434.781 26.7891 435.66 26.7891C436.533 26.7891 437.258 26.457 437.838 25.793C438.417 25.1289 438.707 24.1165 438.707 22.7559C438.707 21.4733 438.414 20.5033 437.828 19.8457C437.249 19.1816 436.526 18.8496 435.66 18.8496C434.781 18.8496 434.052 19.1784 433.473 19.8359C432.893 20.4935 432.604 21.4863 432.604 22.8145ZM442.262 28.8594L443.971 29.1133C444.042 29.6406 444.241 30.0247 444.566 30.2656C445.003 30.5911 445.598 30.7539 446.354 30.7539C447.167 30.7539 447.796 30.5911 448.238 30.2656C448.681 29.9401 448.98 29.4844 449.137 28.8984C449.228 28.5404 449.27 27.7884 449.264 26.6426C448.495 27.5475 447.538 28 446.393 28C444.967 28 443.863 27.4857 443.082 26.457C442.301 25.4284 441.91 24.1947 441.91 22.7559C441.91 21.7663 442.089 20.8548 442.447 20.0215C442.805 19.1816 443.323 18.5339 444 18.0781C444.684 17.6224 445.484 17.3945 446.402 17.3945C447.626 17.3945 448.635 17.8893 449.43 18.8789V17.6289H451.051V26.5938C451.051 28.2083 450.885 29.3509 450.553 30.0215C450.227 30.6986 449.706 31.2324 448.99 31.623C448.281 32.0137 447.405 32.209 446.363 32.209C445.126 32.209 444.127 31.929 443.365 31.3691C442.604 30.8158 442.236 29.9792 442.262 28.8594ZM443.717 22.6289C443.717 23.9896 443.987 24.9824 444.527 25.6074C445.068 26.2324 445.745 26.5449 446.559 26.5449C447.366 26.5449 448.043 26.2357 448.59 25.6172C449.137 24.9922 449.41 24.0156 449.41 22.6875C449.41 21.418 449.127 20.4609 448.561 19.8164C448.001 19.1719 447.324 18.8496 446.529 18.8496C445.748 18.8496 445.084 19.1686 444.537 19.8066C443.99 20.4382 443.717 21.3789 443.717 22.6289ZM459.83 28V13.6836H461.725V28H459.83ZM464.85 28V17.6289H466.432V19.1035C467.193 17.9642 468.294 17.3945 469.732 17.3945C470.357 17.3945 470.93 17.5085 471.451 17.7363C471.979 17.9577 472.372 18.2507 472.633 18.6152C472.893 18.9798 473.076 19.4128 473.18 19.9141C473.245 20.2396 473.277 20.8092 473.277 21.623V28H471.52V21.6914C471.52 20.9753 471.451 20.4414 471.314 20.0898C471.178 19.7318 470.934 19.4486 470.582 19.2402C470.237 19.0254 469.83 18.918 469.361 18.918C468.613 18.918 467.965 19.1556 467.418 19.6309C466.878 20.1061 466.607 21.0078 466.607 22.3359V28H464.85ZM475.279 24.9043L477.018 24.6309C477.115 25.3275 477.385 25.8613 477.828 26.2324C478.277 26.6035 478.902 26.7891 479.703 26.7891C480.51 26.7891 481.109 26.6263 481.5 26.3008C481.891 25.9688 482.086 25.5814 482.086 25.1387C482.086 24.7415 481.913 24.429 481.568 24.2012C481.327 24.0449 480.729 23.8464 479.771 23.6055C478.482 23.2799 477.587 23 477.086 22.7656C476.591 22.5247 476.214 22.196 475.953 21.7793C475.699 21.3561 475.572 20.8906 475.572 20.3828C475.572 19.9206 475.676 19.4941 475.885 19.1035C476.1 18.7064 476.389 18.3776 476.754 18.1172C477.027 17.9154 477.398 17.7461 477.867 17.6094C478.342 17.4661 478.85 17.3945 479.391 17.3945C480.204 17.3945 480.917 17.5117 481.529 17.7461C482.148 17.9805 482.604 18.2995 482.896 18.7031C483.189 19.1003 483.391 19.6341 483.502 20.3047L481.783 20.5391C481.705 20.0052 481.477 19.5885 481.1 19.2891C480.729 18.9896 480.201 18.8398 479.518 18.8398C478.71 18.8398 478.134 18.9733 477.789 19.2402C477.444 19.5072 477.271 19.8197 477.271 20.1777C477.271 20.4056 477.343 20.6107 477.486 20.793C477.63 20.9818 477.854 21.138 478.16 21.2617C478.336 21.3268 478.854 21.4766 479.713 21.7109C480.956 22.043 481.822 22.3164 482.311 22.5312C482.805 22.7396 483.193 23.0456 483.473 23.4492C483.753 23.8529 483.893 24.3542 483.893 24.9531C483.893 25.5391 483.72 26.0924 483.375 26.6133C483.036 27.1276 482.545 27.528 481.9 27.8145C481.256 28.0944 480.527 28.2344 479.713 28.2344C478.365 28.2344 477.337 27.9544 476.627 27.3945C475.924 26.8346 475.475 26.0046 475.279 24.9043Z" fill="#36556B"/>
</g>
<g filter="url(#filter2_i_484_1144)">
<path d="M130 0H393C386.425 2.68284 381.62 8.46603 380.187 15.421L375.996 35.7597C375.007 40.5575 370.783 44 365.884 44H158.768C152.946 44 147.964 39.8207 146.951 34.0872L143.855 16.5551C142.514 8.96337 137.237 2.65763 130 0Z" fill="#F6F6F6"/>
<path d="M208.484 28V13.6836H211.336L214.725 23.8203C215.037 24.7643 215.265 25.4707 215.408 25.9395C215.571 25.4186 215.825 24.6536 216.17 23.6445L219.598 13.6836H222.146V28H220.32V16.0176L216.16 28H214.451L210.311 15.8125V28H208.484ZM231.746 26.7207C231.095 27.2741 230.467 27.6647 229.861 27.8926C229.262 28.1204 228.618 28.2344 227.928 28.2344C226.788 28.2344 225.913 27.9577 225.301 27.4043C224.689 26.8444 224.383 26.1315 224.383 25.2656C224.383 24.7578 224.497 24.2956 224.725 23.8789C224.959 23.4557 225.262 23.1172 225.633 22.8633C226.01 22.6094 226.434 22.4173 226.902 22.2871C227.247 22.196 227.768 22.1081 228.465 22.0234C229.884 21.8542 230.929 21.6523 231.6 21.418C231.606 21.1771 231.609 21.0241 231.609 20.959C231.609 20.2428 231.443 19.7383 231.111 19.4453C230.662 19.0482 229.995 18.8496 229.109 18.8496C228.283 18.8496 227.671 18.9961 227.273 19.2891C226.883 19.5755 226.593 20.0866 226.404 20.8223L224.686 20.5879C224.842 19.8522 225.099 19.2598 225.457 18.8105C225.815 18.3548 226.333 18.0065 227.01 17.7656C227.687 17.5182 228.471 17.3945 229.363 17.3945C230.249 17.3945 230.968 17.4987 231.521 17.707C232.075 17.9154 232.482 18.179 232.742 18.498C233.003 18.8105 233.185 19.2077 233.289 19.6895C233.348 19.9889 233.377 20.5293 233.377 21.3105V23.6543C233.377 25.2884 233.413 26.3236 233.484 26.7598C233.562 27.1895 233.712 27.6029 233.934 28H232.098C231.915 27.6354 231.798 27.209 231.746 26.7207ZM231.6 22.7949C230.962 23.0553 230.005 23.2767 228.729 23.459C228.006 23.5632 227.495 23.6803 227.195 23.8105C226.896 23.9408 226.665 24.1328 226.502 24.3867C226.339 24.6341 226.258 24.9108 226.258 25.2168C226.258 25.6855 226.434 26.0762 226.785 26.3887C227.143 26.7012 227.664 26.8574 228.348 26.8574C229.025 26.8574 229.627 26.7109 230.154 26.418C230.682 26.1185 231.069 25.7116 231.316 25.1973C231.505 24.8001 231.6 24.2142 231.6 23.4395V22.7949ZM236.111 28V17.6289H237.693V19.1035C238.455 17.9642 239.555 17.3945 240.994 17.3945C241.619 17.3945 242.192 17.5085 242.713 17.7363C243.24 17.9577 243.634 18.2507 243.895 18.6152C244.155 18.9798 244.337 19.4128 244.441 19.9141C244.507 20.2396 244.539 20.8092 244.539 21.623V28H242.781V21.6914C242.781 20.9753 242.713 20.4414 242.576 20.0898C242.439 19.7318 242.195 19.4486 241.844 19.2402C241.499 19.0254 241.092 18.918 240.623 18.918C239.874 18.918 239.227 19.1556 238.68 19.6309C238.139 20.1061 237.869 21.0078 237.869 22.3359V28H236.111ZM254.012 26.7207C253.361 27.2741 252.732 27.6647 252.127 27.8926C251.528 28.1204 250.883 28.2344 250.193 28.2344C249.054 28.2344 248.178 27.9577 247.566 27.4043C246.954 26.8444 246.648 26.1315 246.648 25.2656C246.648 24.7578 246.762 24.2956 246.99 23.8789C247.225 23.4557 247.527 23.1172 247.898 22.8633C248.276 22.6094 248.699 22.4173 249.168 22.2871C249.513 22.196 250.034 22.1081 250.73 22.0234C252.15 21.8542 253.195 21.6523 253.865 21.418C253.872 21.1771 253.875 21.0241 253.875 20.959C253.875 20.2428 253.709 19.7383 253.377 19.4453C252.928 19.0482 252.26 18.8496 251.375 18.8496C250.548 18.8496 249.936 18.9961 249.539 19.2891C249.148 19.5755 248.859 20.0866 248.67 20.8223L246.951 20.5879C247.107 19.8522 247.365 19.2598 247.723 18.8105C248.081 18.3548 248.598 18.0065 249.275 17.7656C249.952 17.5182 250.737 17.3945 251.629 17.3945C252.514 17.3945 253.234 17.4987 253.787 17.707C254.34 17.9154 254.747 18.179 255.008 18.498C255.268 18.8105 255.451 19.2077 255.555 19.6895C255.613 19.9889 255.643 20.5293 255.643 21.3105V23.6543C255.643 25.2884 255.678 26.3236 255.75 26.7598C255.828 27.1895 255.978 27.6029 256.199 28H254.363C254.181 27.6354 254.064 27.209 254.012 26.7207ZM253.865 22.7949C253.227 23.0553 252.27 23.2767 250.994 23.459C250.271 23.5632 249.76 23.6803 249.461 23.8105C249.161 23.9408 248.93 24.1328 248.768 24.3867C248.605 24.6341 248.523 24.9108 248.523 25.2168C248.523 25.6855 248.699 26.0762 249.051 26.3887C249.409 26.7012 249.93 26.8574 250.613 26.8574C251.29 26.8574 251.893 26.7109 252.42 26.418C252.947 26.1185 253.335 25.7116 253.582 25.1973C253.771 24.8001 253.865 24.2142 253.865 23.4395V22.7949ZM258.055 28.8594L259.764 29.1133C259.835 29.6406 260.034 30.0247 260.359 30.2656C260.796 30.5911 261.391 30.7539 262.146 30.7539C262.96 30.7539 263.589 30.5911 264.031 30.2656C264.474 29.9401 264.773 29.4844 264.93 28.8984C265.021 28.5404 265.063 27.7884 265.057 26.6426C264.288 27.5475 263.331 28 262.186 28C260.76 28 259.656 27.4857 258.875 26.457C258.094 25.4284 257.703 24.1947 257.703 22.7559C257.703 21.7663 257.882 20.8548 258.24 20.0215C258.598 19.1816 259.116 18.5339 259.793 18.0781C260.477 17.6224 261.277 17.3945 262.195 17.3945C263.419 17.3945 264.428 17.8893 265.223 18.8789V17.6289H266.844V26.5938C266.844 28.2083 266.678 29.3509 266.346 30.0215C266.02 30.6986 265.499 31.2324 264.783 31.623C264.074 32.0137 263.198 32.209 262.156 32.209C260.919 32.209 259.92 31.929 259.158 31.3691C258.396 30.8158 258.029 29.9792 258.055 28.8594ZM259.51 22.6289C259.51 23.9896 259.78 24.9824 260.32 25.6074C260.861 26.2324 261.538 26.5449 262.352 26.5449C263.159 26.5449 263.836 26.2357 264.383 25.6172C264.93 24.9922 265.203 24.0156 265.203 22.6875C265.203 21.418 264.92 20.4609 264.354 19.8164C263.794 19.1719 263.117 18.8496 262.322 18.8496C261.541 18.8496 260.877 19.1686 260.33 19.8066C259.783 20.4382 259.51 21.3789 259.51 22.6289ZM276.609 24.6602L278.426 24.8848C278.139 25.946 277.609 26.7695 276.834 27.3555C276.059 27.9414 275.07 28.2344 273.865 28.2344C272.348 28.2344 271.144 27.7689 270.252 26.8379C269.367 25.9004 268.924 24.5885 268.924 22.9023C268.924 21.1576 269.373 19.8034 270.271 18.8398C271.17 17.8763 272.335 17.3945 273.768 17.3945C275.154 17.3945 276.287 17.8665 277.166 18.8105C278.045 19.7546 278.484 21.0827 278.484 22.7949C278.484 22.8991 278.481 23.0553 278.475 23.2637H270.74C270.805 24.403 271.128 25.2754 271.707 25.8809C272.286 26.4863 273.009 26.7891 273.875 26.7891C274.52 26.7891 275.07 26.6198 275.525 26.2812C275.981 25.9427 276.342 25.4023 276.609 24.6602ZM270.838 21.8184H276.629C276.551 20.946 276.329 20.2917 275.965 19.8555C275.405 19.1784 274.679 18.8398 273.787 18.8398C272.98 18.8398 272.299 19.11 271.746 19.6504C271.199 20.1908 270.896 20.9134 270.838 21.8184ZM295.828 13.6836H297.723V21.9551C297.723 23.3939 297.56 24.5365 297.234 25.3828C296.909 26.2292 296.32 26.9193 295.467 27.4531C294.62 27.9805 293.507 28.2441 292.127 28.2441C290.786 28.2441 289.689 28.013 288.836 27.5508C287.983 27.0885 287.374 26.4212 287.01 25.5488C286.645 24.6699 286.463 23.472 286.463 21.9551V13.6836H288.357V21.9453C288.357 23.1888 288.471 24.1068 288.699 24.6992C288.934 25.2852 289.331 25.7376 289.891 26.0566C290.457 26.3757 291.147 26.5352 291.961 26.5352C293.354 26.5352 294.347 26.2194 294.939 25.5879C295.532 24.9564 295.828 23.7422 295.828 21.9453V13.6836ZM299.959 24.9043L301.697 24.6309C301.795 25.3275 302.065 25.8613 302.508 26.2324C302.957 26.6035 303.582 26.7891 304.383 26.7891C305.19 26.7891 305.789 26.6263 306.18 26.3008C306.57 25.9688 306.766 25.5814 306.766 25.1387C306.766 24.7415 306.593 24.429 306.248 24.2012C306.007 24.0449 305.408 23.8464 304.451 23.6055C303.162 23.2799 302.267 23 301.766 22.7656C301.271 22.5247 300.893 22.196 300.633 21.7793C300.379 21.3561 300.252 20.8906 300.252 20.3828C300.252 19.9206 300.356 19.4941 300.564 19.1035C300.779 18.7064 301.069 18.3776 301.434 18.1172C301.707 17.9154 302.078 17.7461 302.547 17.6094C303.022 17.4661 303.53 17.3945 304.07 17.3945C304.884 17.3945 305.597 17.5117 306.209 17.7461C306.827 17.9805 307.283 18.2995 307.576 18.7031C307.869 19.1003 308.071 19.6341 308.182 20.3047L306.463 20.5391C306.385 20.0052 306.157 19.5885 305.779 19.2891C305.408 18.9896 304.881 18.8398 304.197 18.8398C303.39 18.8398 302.814 18.9733 302.469 19.2402C302.124 19.5072 301.951 19.8197 301.951 20.1777C301.951 20.4056 302.023 20.6107 302.166 20.793C302.309 20.9818 302.534 21.138 302.84 21.2617C303.016 21.3268 303.533 21.4766 304.393 21.7109C305.636 22.043 306.502 22.3164 306.99 22.5312C307.485 22.7396 307.872 23.0456 308.152 23.4492C308.432 23.8529 308.572 24.3542 308.572 24.9531C308.572 25.5391 308.4 26.0924 308.055 26.6133C307.716 27.1276 307.225 27.528 306.58 27.8145C305.936 28.0944 305.206 28.2344 304.393 28.2344C303.045 28.2344 302.016 27.9544 301.307 27.3945C300.604 26.8346 300.154 26.0046 299.959 24.9043ZM317.762 24.6602L319.578 24.8848C319.292 25.946 318.761 26.7695 317.986 27.3555C317.212 27.9414 316.222 28.2344 315.018 28.2344C313.501 28.2344 312.296 27.7689 311.404 26.8379C310.519 25.9004 310.076 24.5885 310.076 22.9023C310.076 21.1576 310.525 19.8034 311.424 18.8398C312.322 17.8763 313.488 17.3945 314.92 17.3945C316.307 17.3945 317.439 17.8665 318.318 18.8105C319.197 19.7546 319.637 21.0827 319.637 22.7949C319.637 22.8991 319.633 23.0553 319.627 23.2637H311.893C311.958 24.403 312.28 25.2754 312.859 25.8809C313.439 26.4863 314.161 26.7891 315.027 26.7891C315.672 26.7891 316.222 26.6198 316.678 26.2812C317.133 25.9427 317.495 25.4023 317.762 24.6602ZM311.99 21.8184H317.781C317.703 20.946 317.482 20.2917 317.117 19.8555C316.557 19.1784 315.831 18.8398 314.939 18.8398C314.132 18.8398 313.452 19.11 312.898 19.6504C312.352 20.1908 312.049 20.9134 311.99 21.8184ZM321.775 28V17.6289H323.357V19.2012C323.761 18.4655 324.132 17.9805 324.471 17.7461C324.816 17.5117 325.193 17.3945 325.604 17.3945C326.196 17.3945 326.798 17.5833 327.41 17.9609L326.805 19.5918C326.375 19.3379 325.945 19.2109 325.516 19.2109C325.132 19.2109 324.786 19.3281 324.48 19.5625C324.174 19.7904 323.956 20.1094 323.826 20.5195C323.631 21.1445 323.533 21.8281 323.533 22.5703V28H321.775ZM327.752 24.9043L329.49 24.6309C329.588 25.3275 329.858 25.8613 330.301 26.2324C330.75 26.6035 331.375 26.7891 332.176 26.7891C332.983 26.7891 333.582 26.6263 333.973 26.3008C334.363 25.9688 334.559 25.5814 334.559 25.1387C334.559 24.7415 334.386 24.429 334.041 24.2012C333.8 24.0449 333.201 23.8464 332.244 23.6055C330.955 23.2799 330.06 23 329.559 22.7656C329.064 22.5247 328.686 22.196 328.426 21.7793C328.172 21.3561 328.045 20.8906 328.045 20.3828C328.045 19.9206 328.149 19.4941 328.357 19.1035C328.572 18.7064 328.862 18.3776 329.227 18.1172C329.5 17.9154 329.871 17.7461 330.34 17.6094C330.815 17.4661 331.323 17.3945 331.863 17.3945C332.677 17.3945 333.39 17.5117 334.002 17.7461C334.62 17.9805 335.076 18.2995 335.369 18.7031C335.662 19.1003 335.864 19.6341 335.975 20.3047L334.256 20.5391C334.178 20.0052 333.95 19.5885 333.572 19.2891C333.201 18.9896 332.674 18.8398 331.99 18.8398C331.183 18.8398 330.607 18.9733 330.262 19.2402C329.917 19.5072 329.744 19.8197 329.744 20.1777C329.744 20.4056 329.816 20.6107 329.959 20.793C330.102 20.9818 330.327 21.138 330.633 21.2617C330.809 21.3268 331.326 21.4766 332.186 21.7109C333.429 22.043 334.295 22.3164 334.783 22.5312C335.278 22.7396 335.665 23.0456 335.945 23.4492C336.225 23.8529 336.365 24.3542 336.365 24.9531C336.365 25.5391 336.193 26.0924 335.848 26.6133C335.509 27.1276 335.018 27.528 334.373 27.8145C333.729 28.0944 332.999 28.2344 332.186 28.2344C330.838 28.2344 329.809 27.9544 329.1 27.3945C328.396 26.8346 327.947 26.0046 327.752 24.9043Z" fill="#36556B"/>
<path d="M188.16 23.3374C188.998 22.7798 189.634 21.9674 189.974 21.0203C190.314 20.0732 190.341 19.0418 190.049 18.0786C189.758 17.1154 189.164 16.2715 188.356 15.6717C187.548 15.0719 186.569 14.748 185.562 14.748C184.556 14.748 183.577 15.0719 182.769 15.6717C181.961 16.2715 181.367 17.1154 181.076 18.0786C180.784 19.0418 180.811 20.0732 181.151 21.0203C181.491 21.9674 182.127 22.7798 182.965 23.3374C181.45 23.8959 180.156 24.9293 179.276 26.2835C179.23 26.3523 179.197 26.4295 179.181 26.5107C179.165 26.592 179.165 26.6756 179.182 26.7568C179.198 26.838 179.231 26.915 179.277 26.9836C179.324 27.0521 179.383 27.1107 179.453 27.1559C179.522 27.2012 179.6 27.2322 179.681 27.2472C179.763 27.2621 179.846 27.2607 179.927 27.2431C180.008 27.2255 180.085 27.1919 180.153 27.1444C180.221 27.0969 180.278 27.0364 180.323 26.9664C180.89 26.0935 181.667 25.3763 182.582 24.8798C183.497 24.3833 184.521 24.1232 185.562 24.1232C186.604 24.1232 187.628 24.3833 188.543 24.8798C189.458 25.3763 190.235 26.0935 190.802 26.9664C190.894 27.1026 191.036 27.1973 191.197 27.23C191.357 27.2626 191.525 27.2307 191.662 27.1409C191.8 27.0512 191.897 26.911 191.932 26.7506C191.967 26.5901 191.937 26.4224 191.849 26.2835C190.969 24.9293 189.675 23.8959 188.16 23.3374ZM182.125 19.4374C182.125 18.7576 182.327 18.093 182.704 17.5277C183.082 16.9624 183.619 16.5218 184.247 16.2616C184.875 16.0014 185.566 15.9334 186.233 16.066C186.9 16.1986 187.512 16.526 187.993 17.0068C188.474 17.4875 188.801 18.1 188.934 18.7668C189.067 19.4336 188.998 20.1248 188.738 20.7529C188.478 21.381 188.038 21.9179 187.472 22.2956C186.907 22.6733 186.242 22.8749 185.562 22.8749C184.651 22.8739 183.777 22.5114 183.133 21.867C182.489 21.2226 182.126 20.3488 182.125 19.4374ZM198.542 27.1484C198.403 27.2389 198.234 27.2706 198.072 27.2365C197.91 27.2023 197.768 27.1052 197.677 26.9664C197.111 26.093 196.334 25.3755 195.419 24.8791C194.504 24.3828 193.479 24.1236 192.437 24.1249C192.272 24.1249 192.113 24.0591 191.996 23.9419C191.878 23.8247 191.812 23.6657 191.812 23.4999C191.812 23.3342 191.878 23.1752 191.996 23.058C192.113 22.9408 192.272 22.8749 192.437 22.8749C192.944 22.8745 193.444 22.7622 193.901 22.5461C194.359 22.3301 194.764 22.0156 195.086 21.6251C195.408 21.2346 195.64 20.7778 195.765 20.2873C195.89 19.7968 195.905 19.2847 195.81 18.7876C195.714 18.2905 195.51 17.8206 195.211 17.4117C194.913 17.0027 194.528 16.6646 194.084 16.4217C193.64 16.1787 193.148 16.0369 192.642 16.0063C192.137 15.9756 191.631 16.057 191.161 16.2445C191.084 16.2776 191.002 16.2951 190.918 16.2958C190.835 16.2965 190.752 16.2804 190.675 16.2486C190.597 16.2167 190.527 16.1698 190.469 16.1104C190.41 16.051 190.364 15.9805 190.333 15.9029C190.302 15.8254 190.286 15.7424 190.288 15.6589C190.29 15.5754 190.308 15.493 190.342 15.4167C190.376 15.3404 190.425 15.2717 190.486 15.2146C190.547 15.1575 190.618 15.1132 190.697 15.0843C191.773 14.6551 192.97 14.6397 194.057 15.041C195.144 15.4422 196.043 16.2318 196.582 17.2573C197.122 18.2828 197.262 19.4716 196.976 20.5944C196.69 21.7172 195.999 22.6944 195.035 23.3374C196.55 23.8959 197.844 24.9293 198.724 26.2835C198.815 26.4224 198.846 26.5915 198.812 26.7537C198.778 26.9158 198.681 27.0578 198.542 27.1484Z" fill="#36556B"/>
<path d="M357.333 19.9999H358.667V18.6666H357.333M358 27.3333C355.06 27.3333 352.667 24.9399 352.667 21.9999C352.667 19.0599 355.06 16.6666 358 16.6666C360.94 16.6666 363.333 19.0599 363.333 21.9999C363.333 24.9399 360.94 27.3333 358 27.3333ZM358 15.3333C357.125 15.3333 356.258 15.5057 355.449 15.8407C354.64 16.1758 353.905 16.6668 353.286 17.2859C352.036 18.5361 351.333 20.2318 351.333 21.9999C351.333 23.768 352.036 25.4637 353.286 26.714C353.905 27.333 354.64 27.8241 355.449 28.1591C356.258 28.4941 357.125 28.6666 358 28.6666C359.768 28.6666 361.464 27.9642 362.714 26.714C363.964 25.4637 364.667 23.768 364.667 21.9999C364.667 21.1244 364.494 20.2575 364.159 19.4487C363.824 18.6399 363.333 17.9049 362.714 17.2859C362.095 16.6668 361.36 16.1758 360.551 15.8407C359.742 15.5057 358.876 15.3333 358 15.3333ZM357.333 25.3333H358.667V21.3333H357.333V25.3333Z" fill="#B5B5B5"/>
</g>
<g filter="url(#filter3_i_484_1144)">
<path d="M0 0H172C167.642 2.71902 164.723 7.23888 164.037 12.3294L161.062 34.4021C160.322 39.8985 155.63 44 150.084 44H22.9248C16.8301 44 11.7034 39.4314 11.004 33.377L8.65048 13.002C8.01859 7.53168 4.80148 2.69624 0 0Z" fill="#F6F6F6"/>
<path d="M49.3825 13.3837C49.2716 13.2972 49.135 13.2502 48.9944 13.2502C48.8538 13.2502 48.7172 13.2972 48.6062 13.3837L39.625 20.3868L40.4019 21.3693L41.5 20.513V28.2499C41.5007 28.5812 41.6326 28.8988 41.8668 29.1331C42.1011 29.3673 42.4187 29.4993 42.75 29.4999H55.25C55.5813 29.4993 55.8989 29.3673 56.1332 29.1331C56.3674 28.8988 56.4993 28.5812 56.5 28.2499V20.5187L57.5981 21.3749L58.375 20.3924L49.3825 13.3837ZM50.25 28.2499H47.75V23.2499H50.25V28.2499ZM51.5 28.2499V23.2499C51.4997 22.9185 51.3679 22.6007 51.1335 22.3664C50.8992 22.132 50.5814 22.0002 50.25 21.9999H47.75C47.4186 22.0002 47.1008 22.132 46.8665 22.3664C46.6321 22.6007 46.5003 22.9185 46.5 23.2499V28.2499H42.75V19.5387L49 14.6699L55.25 19.5449V28.2499H51.5Z" fill="#36556B"/>
<path d="M68.6016 28V13.6836H70.4961V19.5625H77.9375V13.6836H79.832V28H77.9375V21.252H70.4961V28H68.6016ZM82.1172 22.8145C82.1172 20.8939 82.651 19.4714 83.7188 18.5469C84.6107 17.7786 85.6979 17.3945 86.9805 17.3945C88.4062 17.3945 89.5716 17.8633 90.4766 18.8008C91.3815 19.7318 91.834 21.0208 91.834 22.668C91.834 24.0026 91.6322 25.054 91.2285 25.8223C90.8314 26.584 90.2487 27.1764 89.4805 27.5996C88.7188 28.0228 87.8854 28.2344 86.9805 28.2344C85.5286 28.2344 84.3535 27.7689 83.4551 26.8379C82.5632 25.9069 82.1172 24.5658 82.1172 22.8145ZM83.9238 22.8145C83.9238 24.1426 84.2135 25.1387 84.793 25.8027C85.3724 26.4603 86.1016 26.7891 86.9805 26.7891C87.8529 26.7891 88.5788 26.457 89.1582 25.793C89.7376 25.1289 90.0273 24.1165 90.0273 22.7559C90.0273 21.4733 89.7344 20.5033 89.1484 19.8457C88.569 19.1816 87.8464 18.8496 86.9805 18.8496C86.1016 18.8496 85.3724 19.1784 84.793 19.8359C84.2135 20.4935 83.9238 21.4863 83.9238 22.8145ZM93.9043 28V17.6289H95.4766V19.084C95.8021 18.5762 96.235 18.1693 96.7754 17.8633C97.3158 17.5508 97.931 17.3945 98.6211 17.3945C99.3893 17.3945 100.018 17.554 100.506 17.873C101.001 18.1921 101.349 18.638 101.551 19.2109C102.371 18 103.439 17.3945 104.754 17.3945C105.783 17.3945 106.574 17.681 107.127 18.2539C107.68 18.8203 107.957 19.696 107.957 20.8809V28H106.209V21.4668C106.209 20.7637 106.15 20.2591 106.033 19.9531C105.923 19.6406 105.717 19.39 105.418 19.2012C105.118 19.0124 104.767 18.918 104.363 18.918C103.634 18.918 103.029 19.1621 102.547 19.6504C102.065 20.1322 101.824 20.9069 101.824 21.9746V28H100.066V21.2617C100.066 20.4805 99.9232 19.8945 99.6367 19.5039C99.3503 19.1133 98.8815 18.918 98.2305 18.918C97.7357 18.918 97.2767 19.0482 96.8535 19.3086C96.4368 19.569 96.1341 19.9499 95.9453 20.4512C95.7565 20.9525 95.6621 21.6751 95.6621 22.6191V28H93.9043ZM117.664 24.6602L119.48 24.8848C119.194 25.946 118.663 26.7695 117.889 27.3555C117.114 27.9414 116.124 28.2344 114.92 28.2344C113.403 28.2344 112.199 27.7689 111.307 26.8379C110.421 25.9004 109.979 24.5885 109.979 22.9023C109.979 21.1576 110.428 19.8034 111.326 18.8398C112.225 17.8763 113.39 17.3945 114.822 17.3945C116.209 17.3945 117.342 17.8665 118.221 18.8105C119.1 19.7546 119.539 21.0827 119.539 22.7949C119.539 22.8991 119.536 23.0553 119.529 23.2637H111.795C111.86 24.403 112.182 25.2754 112.762 25.8809C113.341 26.4863 114.064 26.7891 114.93 26.7891C115.574 26.7891 116.124 26.6198 116.58 26.2812C117.036 25.9427 117.397 25.4023 117.664 24.6602ZM111.893 21.8184H117.684C117.605 20.946 117.384 20.2917 117.02 19.8555C116.46 19.1784 115.734 18.8398 114.842 18.8398C114.035 18.8398 113.354 19.11 112.801 19.6504C112.254 20.1908 111.951 20.9134 111.893 21.8184Z" fill="#36556B"/>
</g>
<defs>
<filter id="filter0_i_484_1144" x="483" y="0" width="267" height="47" filterUnits="userSpaceOnUse" color-interpolation-filters="sRGB">
<feFlood flood-opacity="0" result="BackgroundImageFix"/>
<feBlend mode="normal" in="SourceGraphic" in2="BackgroundImageFix" result="shape"/>
<feColorMatrix in="SourceAlpha" type="matrix" values="0 0 0 0 0 0 0 0 0 0 0 0 0 0 0 0 0 0 127 0" result="hardAlpha"/>
<feOffset dx="-4" dy="3"/>
<feGaussianBlur stdDeviation="5"/>
<feComposite in2="hardAlpha" operator="arithmetic" k2="-1" k3="1"/>
<feColorMatrix type="matrix" values="0 0 0 0 0.588385 0 0 0 0 0.588385 0 0 0 0 0.588385 0 0 0 0.08 0"/>
<feBlend mode="normal" in2="shape" result="effect1_innerShadow_484_1144"/>
</filter>
<filter id="filter1_i_484_1144" x="340" y="0" width="197" height="47" filterUnits="userSpaceOnUse" color-interpolation-filters="sRGB">
<feFlood flood-opacity="0" result="BackgroundImageFix"/>
<feBlend mode="normal" in="SourceGraphic" in2="BackgroundImageFix" result="shape"/>
<feColorMatrix in="SourceAlpha" type="matrix" values="0 0 0 0 0 0 0 0 0 0 0 0 0 0 0 0 0 0 127 0" result="hardAlpha"/>
<feOffset dx="-4" dy="3"/>
<feGaussianBlur stdDeviation="5"/>
<feComposite in2="hardAlpha" operator="arithmetic" k2="-1" k3="1"/>
<feColorMatrix type="matrix" values="0 0 0 0 0.588385 0 0 0 0 0.588385 0 0 0 0 0.588385 0 0 0 0.08 0"/>
<feBlend mode="normal" in2="shape" result="effect1_innerShadow_484_1144"/>
</filter>
<filter id="filter2_i_484_1144" x="126" y="0" width="267" height="47" filterUnits="userSpaceOnUse" color-interpolation-filters="sRGB">
<feFlood flood-opacity="0" result="BackgroundImageFix"/>
<feBlend mode="normal" in="SourceGraphic" in2="BackgroundImageFix" result="shape"/>
<feColorMatrix in="SourceAlpha" type="matrix" values="0 0 0 0 0 0 0 0 0 0 0 0 0 0 0 0 0 0 127 0" result="hardAlpha"/>
<feOffset dx="-4" dy="3"/>
<feGaussianBlur stdDeviation="5"/>
<feComposite in2="hardAlpha" operator="arithmetic" k2="-1" k3="1"/>
<feColorMatrix type="matrix" values="0 0 0 0 0.588385 0 0 0 0 0.588385 0 0 0 0 0.588385 0 0 0 0.08 0"/>
<feBlend mode="normal" in2="shape" result="effect1_innerShadow_484_1144"/>
</filter>
<filter id="filter3_i_484_1144" x="-4" y="0" width="176" height="47" filterUnits="userSpaceOnUse" color-interpolation-filters="sRGB">
<feFlood flood-opacity="0" result="BackgroundImageFix"/>
<feBlend mode="normal" in="SourceGraphic" in2="BackgroundImageFix" result="shape"/>
<feColorMatrix in="SourceAlpha" type="matrix" values="0 0 0 0 0 0 0 0 0 0 0 0 0 0 0 0 0 0 127 0" result="hardAlpha"/>
<feOffset dx="-4" dy="3"/>
<feGaussianBlur stdDeviation="5"/>
<feComposite in2="hardAlpha" operator="arithmetic" k2="-1" k3="1"/>
<feColorMatrix type="matrix" values="0 0 0 0 0.588385 0 0 0 0 0.588385 0 0 0 0 0.588385 0 0 0 0.08 0"/>
<feBlend mode="normal" in2="shape" result="effect1_innerShadow_484_1144"/>
</filter>
</defs>
</svg>
