<svg width="55" height="54" viewBox="0 0 55 54" fill="none" xmlns="http://www.w3.org/2000/svg">
<rect width="55" height="54" rx="27" fill="#E9F0FF"/>
<path d="M18.4529 37.9459C16.1955 37.9459 14.0306 37.0809 12.4344 35.5414C10.8382 34.0018 9.94141 31.9137 9.94141 29.7364C9.94141 27.5591 10.8382 25.471 12.4344 23.9314C14.0306 22.3919 16.1955 21.5269 18.4529 21.5269C18.9861 19.1319 20.5457 17.0272 22.7888 15.6758C23.8995 15.0067 25.1445 14.5426 26.4528 14.3101C27.7611 14.0776 29.1071 14.0813 30.4138 14.3209C31.7205 14.5604 32.9625 15.0312 34.0687 15.7064C35.175 16.3816 36.1239 17.2478 36.8612 18.2558C37.5985 19.2638 38.1099 20.3936 38.3661 21.5809C38.6222 22.7682 38.6182 23.9897 38.3542 25.1756H40.1634C41.8428 25.1756 43.4535 25.8483 44.641 27.0458C45.8285 28.2432 46.4957 29.8673 46.4957 31.5607C46.4957 33.2542 45.8285 34.8783 44.641 36.0757C43.4535 37.2731 41.8428 37.9459 40.1634 37.9459H38.3542" stroke="#4664F3" stroke-width="3" stroke-linecap="round" stroke-linejoin="round"/>
<path d="M22.0723 32.473L27.4999 27M27.4999 27L32.9275 32.473M27.4999 27V43.4189" stroke="#4664F3" stroke-width="3" stroke-linecap="round" stroke-linejoin="round"/>
</svg>
