<svg width="236" height="44" viewBox="0 0 236 44" fill="none" xmlns="http://www.w3.org/2000/svg">
<g filter="url(#filter0_i_1001_1567)">
<path d="M0 0H236V0C230.085 2.68997 225.856 8.09994 224.674 14.49L220.795 35.4702C219.881 40.4131 215.57 44 210.543 44H27.0301C21.1279 44 16.102 39.7079 15.178 33.8785L12.263 15.4863C11.1615 8.53631 6.51241 2.66527 0 0V0Z" fill="url(#paint0_linear_1001_1567)"/>
<path d="M99.9375 13.6836H101.832V21.9551C101.832 23.3939 101.669 24.5365 101.344 25.3828C101.018 26.2292 100.429 26.9193 99.5762 27.4531C98.7298 27.9805 97.6165 28.2441 96.2363 28.2441C94.8952 28.2441 93.7982 28.013 92.9453 27.5508C92.0924 27.0885 91.4837 26.4212 91.1191 25.5488C90.7546 24.6699 90.5723 23.472 90.5723 21.9551V13.6836H92.4668V21.9453C92.4668 23.1888 92.5807 24.1068 92.8086 24.6992C93.043 25.2852 93.4401 25.7376 94 26.0566C94.5664 26.3757 95.2565 26.5352 96.0703 26.5352C97.4635 26.5352 98.4564 26.2194 99.0488 25.5879C99.6413 24.9564 99.9375 23.7422 99.9375 21.9453V13.6836ZM104.771 31.9746V17.6289H106.373V18.9766C106.751 18.4492 107.177 18.0553 107.652 17.7949C108.128 17.528 108.704 17.3945 109.381 17.3945C110.266 17.3945 111.048 17.6224 111.725 18.0781C112.402 18.5339 112.913 19.1784 113.258 20.0117C113.603 20.8385 113.775 21.7467 113.775 22.7363C113.775 23.7975 113.583 24.7546 113.199 25.6074C112.822 26.4538 112.268 27.1048 111.539 27.5605C110.816 28.0098 110.055 28.2344 109.254 28.2344C108.668 28.2344 108.141 28.1107 107.672 27.8633C107.21 27.6159 106.829 27.3034 106.529 26.9258V31.9746H104.771ZM106.363 22.873C106.363 24.2077 106.633 25.194 107.174 25.832C107.714 26.4701 108.368 26.7891 109.137 26.7891C109.918 26.7891 110.585 26.4603 111.139 25.8027C111.699 25.1387 111.979 24.1133 111.979 22.7266C111.979 21.4049 111.705 20.4154 111.158 19.7578C110.618 19.1003 109.97 18.7715 109.215 18.7715C108.466 18.7715 107.802 19.123 107.223 19.8262C106.65 20.5228 106.363 21.5384 106.363 22.873ZM115.865 28V13.6836H117.623V28H115.865ZM119.703 22.8145C119.703 20.8939 120.237 19.4714 121.305 18.5469C122.197 17.7786 123.284 17.3945 124.566 17.3945C125.992 17.3945 127.158 17.8633 128.062 18.8008C128.967 19.7318 129.42 21.0208 129.42 22.668C129.42 24.0026 129.218 25.054 128.814 25.8223C128.417 26.584 127.835 27.1764 127.066 27.5996C126.305 28.0228 125.471 28.2344 124.566 28.2344C123.115 28.2344 121.939 27.7689 121.041 26.8379C120.149 25.9069 119.703 24.5658 119.703 22.8145ZM121.51 22.8145C121.51 24.1426 121.799 25.1387 122.379 25.8027C122.958 26.4603 123.688 26.7891 124.566 26.7891C125.439 26.7891 126.165 26.457 126.744 25.793C127.324 25.1289 127.613 24.1165 127.613 22.7559C127.613 21.4733 127.32 20.5033 126.734 19.8457C126.155 19.1816 125.432 18.8496 124.566 18.8496C123.688 18.8496 122.958 19.1784 122.379 19.8359C121.799 20.4935 121.51 21.4863 121.51 22.8145ZM138.258 26.7207C137.607 27.2741 136.979 27.6647 136.373 27.8926C135.774 28.1204 135.13 28.2344 134.439 28.2344C133.3 28.2344 132.424 27.9577 131.812 27.4043C131.201 26.8444 130.895 26.1315 130.895 25.2656C130.895 24.7578 131.008 24.2956 131.236 23.8789C131.471 23.4557 131.773 23.1172 132.145 22.8633C132.522 22.6094 132.945 22.4173 133.414 22.2871C133.759 22.196 134.28 22.1081 134.977 22.0234C136.396 21.8542 137.441 21.6523 138.111 21.418C138.118 21.1771 138.121 21.0241 138.121 20.959C138.121 20.2428 137.955 19.7383 137.623 19.4453C137.174 19.0482 136.507 18.8496 135.621 18.8496C134.794 18.8496 134.182 18.9961 133.785 19.2891C133.395 19.5755 133.105 20.0866 132.916 20.8223L131.197 20.5879C131.354 19.8522 131.611 19.2598 131.969 18.8105C132.327 18.3548 132.844 18.0065 133.521 17.7656C134.199 17.5182 134.983 17.3945 135.875 17.3945C136.76 17.3945 137.48 17.4987 138.033 17.707C138.587 17.9154 138.993 18.179 139.254 18.498C139.514 18.8105 139.697 19.2077 139.801 19.6895C139.859 19.9889 139.889 20.5293 139.889 21.3105V23.6543C139.889 25.2884 139.924 26.3236 139.996 26.7598C140.074 27.1895 140.224 27.6029 140.445 28H138.609C138.427 27.6354 138.31 27.209 138.258 26.7207ZM138.111 22.7949C137.473 23.0553 136.516 23.2767 135.24 23.459C134.518 23.5632 134.007 23.6803 133.707 23.8105C133.408 23.9408 133.176 24.1328 133.014 24.3867C132.851 24.6341 132.77 24.9108 132.77 25.2168C132.77 25.6855 132.945 26.0762 133.297 26.3887C133.655 26.7012 134.176 26.8574 134.859 26.8574C135.536 26.8574 136.139 26.7109 136.666 26.418C137.193 26.1185 137.581 25.7116 137.828 25.1973C138.017 24.8001 138.111 24.2142 138.111 23.4395V22.7949ZM149.352 28V26.6914C148.694 27.7201 147.727 28.2344 146.451 28.2344C145.624 28.2344 144.863 28.0065 144.166 27.5508C143.476 27.0951 142.939 26.4603 142.555 25.6465C142.177 24.8262 141.988 23.8854 141.988 22.8242C141.988 21.7891 142.161 20.8516 142.506 20.0117C142.851 19.1654 143.368 18.5176 144.059 18.0684C144.749 17.6191 145.52 17.3945 146.373 17.3945C146.998 17.3945 147.555 17.528 148.043 17.7949C148.531 18.0553 148.928 18.3971 149.234 18.8203V13.6836H150.982V28H149.352ZM143.795 22.8242C143.795 24.1523 144.075 25.1452 144.635 25.8027C145.195 26.4603 145.855 26.7891 146.617 26.7891C147.385 26.7891 148.036 26.4766 148.57 25.8516C149.111 25.2201 149.381 24.2598 149.381 22.9707C149.381 21.5514 149.107 20.5098 148.561 19.8457C148.014 19.1816 147.34 18.8496 146.539 18.8496C145.758 18.8496 145.104 19.1686 144.576 19.8066C144.055 20.4447 143.795 21.4505 143.795 22.8242Z" fill="white"/>
<g clip-path="url(#clip0_1001_1567)">
<path d="M63.5625 22.1376C63.7117 22.1376 63.8548 22.1968 63.9602 22.3023C64.0657 22.4078 64.125 22.5509 64.125 22.7001V25.5126C64.125 25.8109 64.2435 26.0971 64.4545 26.3081C64.6655 26.519 64.9516 26.6376 65.25 26.6376H78.75C79.0484 26.6376 79.3345 26.519 79.5455 26.3081C79.7565 26.0971 79.875 25.8109 79.875 25.5126V22.7001C79.875 22.5509 79.9343 22.4078 80.0398 22.3023C80.1452 22.1968 80.2883 22.1376 80.4375 22.1376C80.5867 22.1376 80.7298 22.1968 80.8352 22.3023C80.9407 22.4078 81 22.5509 81 22.7001V25.5126C81 26.1093 80.7629 26.6816 80.341 27.1036C79.919 27.5255 79.3467 27.7626 78.75 27.7626H65.25C64.6533 27.7626 64.081 27.5255 63.659 27.1036C63.2371 26.6816 63 26.1093 63 25.5126V22.7001C63 22.5509 63.0593 22.4078 63.1648 22.3023C63.2702 22.1968 63.4133 22.1376 63.5625 22.1376Z" fill="white" stroke="white" stroke-width="0.5"/>
<path d="M71.6018 12.2893C71.654 12.2369 71.7161 12.1953 71.7844 12.167C71.8528 12.1386 71.926 12.124 72 12.124C72.074 12.124 72.1473 12.1386 72.2156 12.167C72.2839 12.1953 72.346 12.2369 72.3983 12.2893L75.7733 15.6643C75.8789 15.7699 75.9382 15.9132 75.9382 16.0625C75.9382 16.2119 75.8789 16.3552 75.7733 16.4608C75.6676 16.5664 75.5244 16.6257 75.375 16.6257C75.2256 16.6257 75.0824 16.5664 74.9768 16.4608L72.5625 14.0454V23.9375C72.5625 24.0867 72.5032 24.2298 72.3977 24.3353C72.2923 24.4408 72.1492 24.5 72 24.5C71.8508 24.5 71.7077 24.4408 71.6023 24.3353C71.4968 24.2298 71.4375 24.0867 71.4375 23.9375V14.0454L69.0233 16.4608C68.971 16.5131 68.9089 16.5546 68.8405 16.5829C68.7722 16.6112 68.699 16.6257 68.625 16.6257C68.551 16.6257 68.4778 16.6112 68.4095 16.5829C68.3411 16.5546 68.2791 16.5131 68.2268 16.4608C68.1745 16.4085 68.133 16.3464 68.1047 16.2781C68.0764 16.2097 68.0618 16.1365 68.0618 16.0625C68.0618 15.9886 68.0764 15.9153 68.1047 15.847C68.133 15.7787 68.1745 15.7166 68.2268 15.6643L71.6018 12.2893Z" fill="white" stroke="white" stroke-width="0.5"/>
</g>
</g>
<defs>
<filter id="filter0_i_1001_1567" x="-4" y="0" width="240" height="47" filterUnits="userSpaceOnUse" color-interpolation-filters="sRGB">
<feFlood flood-opacity="0" result="BackgroundImageFix"/>
<feBlend mode="normal" in="SourceGraphic" in2="BackgroundImageFix" result="shape"/>
<feColorMatrix in="SourceAlpha" type="matrix" values="0 0 0 0 0 0 0 0 0 0 0 0 0 0 0 0 0 0 127 0" result="hardAlpha"/>
<feOffset dx="-4" dy="3"/>
<feGaussianBlur stdDeviation="5"/>
<feComposite in2="hardAlpha" operator="arithmetic" k2="-1" k3="1"/>
<feColorMatrix type="matrix" values="0 0 0 0 0.588385 0 0 0 0 0.588385 0 0 0 0 0.588385 0 0 0 0.08 0"/>
<feBlend mode="normal" in2="shape" result="effect1_innerShadow_1001_1567"/>
</filter>
<linearGradient id="paint0_linear_1001_1567" x1="118" y1="0" x2="118" y2="53.2093" gradientUnits="userSpaceOnUse">
<stop stop-color="#F8A716"/>
<stop offset="1" stop-color="#E75126"/>
</linearGradient>
<clipPath id="clip0_1001_1567">
<rect width="18" height="18" fill="white" transform="translate(63 11)"/>
</clipPath>
</defs>
</svg>
