<svg width="39" height="39" viewBox="0 0 39 39" fill="none" xmlns="http://www.w3.org/2000/svg">
<path d="M23.8644 18.7078L10.374 16.3312V33.8922C10.3742 34.083 10.4119 34.2719 10.4851 34.4481C10.5582 34.6243 10.6654 34.7843 10.8004 34.9191C10.9354 35.0539 11.0956 35.1608 11.272 35.2336C11.4483 35.3065 11.6372 35.3439 11.828 35.3437H35.1061C35.2971 35.3442 35.4863 35.307 35.6629 35.2343C35.8395 35.1616 36 35.0548 36.1353 34.92C36.2706 34.7852 36.3779 34.625 36.4512 34.4486C36.5245 34.2723 36.5624 34.0832 36.5625 33.8922V27.4219L23.8644 18.7078Z" fill="#185C37"/>
<path d="M23.8644 3.65625H11.828C11.6372 3.65609 11.4483 3.69351 11.272 3.76637C11.0956 3.83923 10.9354 3.9461 10.8004 4.08089C10.6654 4.21568 10.5582 4.37574 10.4851 4.55193C10.4119 4.72813 10.3742 4.917 10.374 5.10778V11.5781L23.8644 19.5L31.0075 21.8766L36.5625 19.5V11.5781L23.8644 3.65625Z" fill="#21A366"/>
<path d="M10.374 11.5781H23.8644V19.5H10.374V11.5781Z" fill="#107C41"/>
<path opacity="0.1" d="M20.029 9.99374H10.374V29.7984H20.029C20.4137 29.7965 20.7821 29.6431 21.0545 29.3714C21.3269 29.0997 21.4813 28.7316 21.4841 28.3469V11.4453C21.4813 11.0606 21.3269 10.6925 21.0545 10.4208C20.7821 10.1491 20.4137 9.99566 20.029 9.99374Z" fill="black"/>
<path opacity="0.2" d="M19.2356 10.7859H10.374V30.5906H19.2356C19.6203 30.5887 19.9887 30.4353 20.2611 30.1636C20.5335 29.8919 20.6879 29.5238 20.6907 29.1391V12.2375C20.6879 11.8528 20.5335 11.4847 20.2611 11.213C19.9887 10.9413 19.6203 10.7879 19.2356 10.7859Z" fill="black"/>
<path opacity="0.2" d="M19.2356 10.7859H10.374V29.0063H19.2356C19.6203 29.0043 19.9887 28.8509 20.2611 28.5792C20.5335 28.3075 20.6879 27.9394 20.6907 27.5547V12.2375C20.6879 11.8528 20.5335 11.4847 20.2611 11.213C19.9887 10.9413 19.6203 10.7879 19.2356 10.7859Z" fill="black"/>
<path opacity="0.2" d="M18.4421 10.7859H10.374V29.0063H18.4421C18.8269 29.0043 19.1953 28.8509 19.4677 28.5792C19.7401 28.3075 19.8945 27.9394 19.8973 27.5547V12.2375C19.8945 11.8528 19.7401 11.4847 19.4677 11.213C19.1953 10.9413 18.8269 10.7879 18.4421 10.7859Z" fill="black"/>
<path d="M3.89269 10.786H18.4421C18.8275 10.7856 19.1973 10.9383 19.4702 11.2105C19.743 11.4827 19.8967 11.8521 19.8973 12.2375V26.7625C19.8967 27.1479 19.743 27.5173 19.4702 27.7895C19.1973 28.0617 18.8275 28.2144 18.4421 28.2141H3.89269C3.70181 28.2144 3.51274 28.1771 3.33628 28.1043C3.15982 28.0315 2.99944 27.9247 2.86429 27.7899C2.72915 27.6551 2.6219 27.495 2.54867 27.3187C2.47544 27.1424 2.43766 26.9534 2.4375 26.7625V12.2375C2.43766 12.0466 2.47544 11.8576 2.54867 11.6814C2.6219 11.5051 2.72915 11.345 2.86429 11.2102C2.99944 11.0754 3.15982 10.9685 3.33628 10.8957C3.51274 10.8229 3.70181 10.7856 3.89269 10.786Z" fill="url(#paint0_linear_1005_17720)"/>
<path d="M6.94629 24.2203L10.0066 19.4867L7.20345 14.7798H9.45448L10.984 17.7938C11.1254 18.079 11.2278 18.2911 11.2741 18.4324H11.2948C11.3947 18.2033 11.5008 17.9827 11.6117 17.767L13.2472 14.7847H15.3191L12.4441 19.4647L15.3922 24.2239H13.1875L11.4203 20.9199C11.3383 20.7779 11.2685 20.629 11.2119 20.4751H11.1827C11.1311 20.6251 11.0624 20.7686 10.9779 20.9028L9.15832 24.2203H6.94629Z" fill="white"/>
<path d="M35.1062 3.65625H23.8633V11.5781H36.5614V5.10778C36.5613 4.9169 36.5235 4.72792 36.4503 4.55165C36.377 4.37538 36.2698 4.21526 36.1346 4.08046C35.9995 3.94566 35.8391 3.83881 35.6627 3.76602C35.4862 3.69323 35.2971 3.65593 35.1062 3.65625Z" fill="#33C481"/>
<path d="M23.8633 19.5H36.5614V27.4219H23.8633V19.5Z" fill="#107C41"/>
<defs>
<linearGradient id="paint0_linear_1005_17720" x1="5.47706" y1="9.6452" x2="16.8578" y2="29.3548" gradientUnits="userSpaceOnUse">
<stop stop-color="#18884F"/>
<stop offset="0.5" stop-color="#117E43"/>
<stop offset="1" stop-color="#0B6631"/>
</linearGradient>
</defs>
</svg>
